<svg width="327" height="52" viewBox="0 0 327 52" fill="none" xmlns="http://www.w3.org/2000/svg">
<rect x="0.5" y="8.5" width="326" height="43" rx="7.5" stroke="#C22300"/>
<path d="M18.864 36H17.488V24.576H18.864V36ZM21.799 27.952H23.079V29.424C23.271 28.9227 23.6017 28.5227 24.071 28.224C24.551 27.9147 25.095 27.76 25.703 27.76C26.6097 27.76 27.3137 28.032 27.815 28.576C28.327 29.1093 28.583 29.856 28.583 30.816V36H27.255V31.104C27.255 30.3573 27.0897 29.7973 26.759 29.424C26.439 29.04 25.9643 28.848 25.335 28.848C24.6417 28.848 24.0977 29.0827 23.703 29.552C23.319 30.0213 23.127 30.6933 23.127 31.568V36H21.799V27.952ZM35.3459 36.192C34.7592 36.192 34.2259 36.048 33.7459 35.76C33.2659 35.4613 32.9085 35.072 32.6739 34.592V38.848H31.3459V27.952H32.6259V29.424C32.8499 28.9333 33.2072 28.5333 33.6979 28.224C34.1885 27.9147 34.7379 27.76 35.3459 27.76C36.4019 27.76 37.2605 28.1547 37.9219 28.944C38.5939 29.7227 38.9299 30.736 38.9299 31.984C38.9299 33.232 38.5939 34.2453 37.9219 35.024C37.2499 35.8027 36.3912 36.192 35.3459 36.192ZM35.0739 28.8C34.3165 28.8 33.7139 29.0773 33.2659 29.632C32.8285 30.176 32.6099 30.9173 32.6099 31.856V32.08C32.6099 33.0187 32.8285 33.7653 33.2659 34.32C33.7139 34.8747 34.3165 35.152 35.0739 35.152C35.8419 35.152 36.4499 34.864 36.8979 34.288C37.3565 33.712 37.5859 32.944 37.5859 31.984C37.5859 31.0133 37.3565 30.24 36.8979 29.664C36.4499 29.088 35.8419 28.8 35.0739 28.8ZM47.8136 27.952V36H46.5176V34.544C46.3256 35.056 46.0003 35.4613 45.5416 35.76C45.083 36.048 44.555 36.192 43.9576 36.192C43.051 36.192 42.347 35.9307 41.8456 35.408C41.355 34.8747 41.1096 34.1173 41.1096 33.136V27.952H42.4536V32.88C42.4536 33.6373 42.6083 34.208 42.9176 34.592C43.2376 34.9653 43.7123 35.152 44.3416 35.152C45.0136 35.152 45.5363 34.912 45.9096 34.432C46.283 33.952 46.4696 33.2693 46.4696 32.384V27.952H47.8136ZM53.2344 35.008C53.4264 35.008 53.613 34.992 53.7944 34.96C53.9864 34.928 54.189 34.88 54.4024 34.816V35.904C54.1464 35.9787 53.901 36.032 53.6664 36.064C53.4424 36.1067 53.2184 36.128 52.9944 36.128C52.2477 36.128 51.6877 35.9467 51.3144 35.584C50.9517 35.2213 50.7704 34.672 50.7704 33.936V28.96H49.5864V27.952H50.7704V25.904H52.0824V27.952H54.1944V28.96H52.0664V33.872C52.0664 34.2667 52.157 34.5547 52.3384 34.736C52.5304 34.9173 52.829 35.008 53.2344 35.008ZM60.2414 36V28.96H59.0734V27.952H60.2414V26.448C60.2414 25.7333 60.4494 25.1787 60.8654 24.784C61.2814 24.3787 61.852 24.176 62.5774 24.176C62.7267 24.176 62.8814 24.1867 63.0414 24.208C63.212 24.2187 63.356 24.2347 63.4734 24.256V25.312C63.3774 25.3013 63.2547 25.2907 63.1054 25.28C62.9667 25.2693 62.8174 25.264 62.6574 25.264C62.3054 25.264 62.0334 25.3653 61.8414 25.568C61.6494 25.7707 61.5534 26.0693 61.5534 26.464V27.952H63.2814V28.96H61.5534V36H60.2414ZM66.4101 26.272H64.9061V24.656H66.4101V26.272ZM66.3301 36H65.0021V27.952H66.3301V36ZM70.502 24.224V36H69.174V24.224H70.502ZM74.6739 24.224V36H73.3459V24.224H74.6739ZM82.8778 33.632H84.1258C83.9551 34.432 83.5711 35.0613 82.9738 35.52C82.3764 35.968 81.6511 36.192 80.7977 36.192C79.6351 36.192 78.6964 35.8133 77.9818 35.056C77.2778 34.2987 76.9258 33.2853 76.9258 32.016C76.9258 30.7467 77.2778 29.7227 77.9818 28.944C78.6964 28.1547 79.6084 27.76 80.7178 27.76C81.7844 27.76 82.6271 28.128 83.2458 28.864C83.8644 29.5893 84.1737 30.544 84.1737 31.728V32.256H78.2218C78.2538 33.1733 78.4938 33.8827 78.9418 34.384C79.4004 34.8853 80.0191 35.136 80.7977 35.136C81.3204 35.136 81.7524 35.0133 82.0938 34.768C82.4458 34.512 82.7071 34.1333 82.8778 33.632ZM80.7178 28.832C80.0458 28.832 79.4964 29.0507 79.0698 29.488C78.6431 29.9147 78.3764 30.5173 78.2698 31.296H82.8778C82.8564 30.528 82.6538 29.9253 82.2698 29.488C81.8964 29.0507 81.3791 28.832 80.7178 28.832ZM89.416 36.192C88.3707 36.192 87.512 35.8027 86.84 35.024C86.168 34.2453 85.832 33.232 85.832 31.984C85.832 30.736 86.1627 29.7227 86.824 28.944C87.496 28.1547 88.36 27.76 89.416 27.76C90.024 27.76 90.5627 27.9093 91.032 28.208C91.512 28.496 91.864 28.8853 92.088 29.376V24.224H93.416V36H92.136V34.592C91.9013 35.0613 91.5387 35.4453 91.048 35.744C90.5573 36.0427 90.0133 36.192 89.416 36.192ZM89.688 28.8C88.92 28.8 88.3067 29.088 87.848 29.664C87.4 30.24 87.176 31.0133 87.176 31.984C87.176 32.944 87.4 33.712 87.848 34.288C88.3067 34.864 88.92 35.152 89.688 35.152C90.4453 35.152 91.0427 34.8747 91.48 34.32C91.928 33.7653 92.152 33.0187 92.152 32.08V31.856C92.152 30.9173 91.928 30.176 91.48 29.632C91.0427 29.0773 90.4453 28.8 89.688 28.8Z" fill="#2B2B2B"/>
<path d="M298 27.5L303 32.5L308 27.5" stroke="#2B2B2B" stroke-width="1.66764" stroke-linecap="square" stroke-linejoin="round"/>
<g clip-path="url(#clip0_41_525)">
<rect width="40" height="16" transform="translate(16)" fill="white"/>
<path d="M26.756 13H21.116V4.432H22.148V12.136H26.756V13ZM33.2131 13H32.2171C32.1851 12.84 32.1571 12.672 32.1331 12.496C32.1171 12.312 32.1091 12.14 32.1091 11.98C31.9811 12.332 31.7251 12.612 31.3411 12.82C30.9651 13.028 30.5211 13.132 30.0091 13.132C29.4331 13.132 28.9611 12.976 28.5931 12.664C28.2331 12.344 28.0531 11.924 28.0531 11.404C28.0531 10.884 28.2251 10.472 28.5691 10.168C28.9211 9.864 29.4451 9.672 30.1411 9.592L32.0851 9.34V8.992C32.0851 8.552 31.9611 8.216 31.7131 7.984C31.4731 7.744 31.1251 7.624 30.6691 7.624C30.2691 7.624 29.9491 7.724 29.7091 7.924C29.4691 8.116 29.3291 8.388 29.2891 8.74H28.3291C28.3851 8.148 28.6251 7.68 29.0491 7.336C29.4811 6.992 30.0291 6.82 30.6931 6.82C31.4611 6.82 32.0491 7.004 32.4571 7.372C32.8651 7.74 33.0691 8.272 33.0691 8.968V11.74C33.0691 12.02 33.0811 12.26 33.1051 12.46C33.1291 12.652 33.1651 12.832 33.2131 13ZM29.0611 11.38C29.0611 11.684 29.1651 11.928 29.3731 12.112C29.5811 12.288 29.8611 12.376 30.2131 12.376C30.7491 12.376 31.1931 12.216 31.5451 11.896C31.9051 11.568 32.0851 11.144 32.0851 10.624V10.084L30.4411 10.264C29.9211 10.336 29.5611 10.46 29.3611 10.636C29.1611 10.812 29.0611 11.06 29.0611 11.38ZM38.1422 13.144C37.6942 13.144 37.2862 13.032 36.9182 12.808C36.5502 12.584 36.2782 12.296 36.1022 11.944V13H35.1422V4.168H36.1382V8.032C36.3062 7.664 36.5662 7.372 36.9182 7.156C37.2782 6.932 37.6862 6.82 38.1422 6.82C38.9342 6.82 39.5782 7.116 40.0742 7.708C40.5782 8.292 40.8302 9.052 40.8302 9.988C40.8302 10.924 40.5782 11.684 40.0742 12.268C39.5702 12.852 38.9262 13.144 38.1422 13.144ZM37.9382 7.6C37.3702 7.6 36.9182 7.808 36.5822 8.224C36.2542 8.632 36.0902 9.188 36.0902 9.892V10.06C36.0902 10.764 36.2542 11.324 36.5822 11.74C36.9182 12.156 37.3702 12.364 37.9382 12.364C38.5142 12.364 38.9702 12.148 39.3062 11.716C39.6502 11.284 39.8222 10.708 39.8222 9.988C39.8222 9.26 39.6502 8.68 39.3062 8.248C38.9702 7.816 38.5142 7.6 37.9382 7.6ZM46.545 11.224H47.481C47.353 11.824 47.065 12.296 46.617 12.64C46.169 12.976 45.625 13.144 44.985 13.144C44.113 13.144 43.409 12.86 42.873 12.292C42.345 11.724 42.081 10.964 42.081 10.012C42.081 9.06 42.345 8.292 42.873 7.708C43.409 7.116 44.093 6.82 44.925 6.82C45.725 6.82 46.357 7.096 46.821 7.648C47.285 8.192 47.517 8.908 47.517 9.796V10.192H43.053C43.077 10.88 43.257 11.412 43.593 11.788C43.937 12.164 44.401 12.352 44.985 12.352C45.377 12.352 45.701 12.26 45.957 12.076C46.221 11.884 46.417 11.6 46.545 11.224ZM44.925 7.624C44.421 7.624 44.009 7.788 43.689 8.116C43.369 8.436 43.169 8.888 43.089 9.472H46.545C46.529 8.896 46.377 8.444 46.089 8.116C45.809 7.788 45.421 7.624 44.925 7.624ZM50.2007 4.168V13H49.2047V4.168H50.2007Z" fill="#C22300"/>
</g>
<defs>
<clipPath id="clip0_41_525">
<rect width="40" height="16" fill="white" transform="translate(16)"/>
</clipPath>
</defs>
</svg>
