<svg width="114" height="20" viewBox="0 0 114 20" fill="none" xmlns="http://www.w3.org/2000/svg">
<path d="M49.488 4.576H53.536C55.2 4.576 56.544 5.104 57.568 6.16C58.592 7.20533 59.104 8.58133 59.104 10.288C59.104 11.9947 58.592 13.376 57.568 14.432C56.544 15.4773 55.2 16 53.536 16H49.488V4.576ZM57.68 10.288C57.68 8.86933 57.312 7.75467 56.576 6.944C55.84 6.13333 54.8267 5.728 53.536 5.728H50.848V14.848H53.536C54.8373 14.848 55.8507 14.4427 56.576 13.632C57.312 12.8213 57.68 11.7067 57.68 10.288ZM62.7383 6.272H61.2343V4.656H62.7383V6.272ZM62.6583 16H61.3303V7.952H62.6583V16ZM68.3181 16.192C67.2941 16.192 66.4675 15.968 65.8381 15.52C65.2195 15.0613 64.8781 14.4267 64.8141 13.616H66.0941C66.1368 14.1067 66.3555 14.4907 66.7501 14.768C67.1555 15.0453 67.6728 15.184 68.3021 15.184C68.8781 15.184 69.3368 15.0613 69.6781 14.816C70.0301 14.56 70.2061 14.224 70.2061 13.808C70.2061 13.4987 70.0888 13.2533 69.8541 13.072C69.6301 12.88 69.2781 12.736 68.7981 12.64L67.3741 12.352C66.5848 12.2027 66.0141 11.9573 65.6621 11.616C65.3101 11.264 65.1341 10.784 65.1341 10.176C65.1341 9.48267 65.4168 8.90667 65.9821 8.448C66.5475 7.98933 67.2621 7.76 68.1261 7.76C69.0648 7.76 69.8061 7.96267 70.3501 8.368C70.8941 8.76267 71.2035 9.33333 71.2781 10.08H70.0461C70.0035 9.67467 69.8115 9.36 69.4701 9.136C69.1288 8.90133 68.6808 8.784 68.1261 8.784C67.5928 8.784 67.1661 8.90667 66.8461 9.152C66.5261 9.38667 66.3661 9.70133 66.3661 10.096C66.3661 10.416 66.4728 10.6667 66.6861 10.848C66.8995 11.0187 67.2621 11.152 67.7741 11.248L69.3741 11.552C70.0781 11.6907 70.6008 11.9413 70.9421 12.304C71.2835 12.656 71.4541 13.136 71.4541 13.744C71.4541 14.448 71.1555 15.0347 70.5581 15.504C69.9715 15.9627 69.2248 16.192 68.3181 16.192ZM80.0081 16H78.6801C78.6375 15.7867 78.6001 15.5627 78.5681 15.328C78.5468 15.0827 78.5361 14.8533 78.5361 14.64C78.3655 15.1093 78.0241 15.4827 77.5121 15.76C77.0108 16.0373 76.4188 16.176 75.7361 16.176C74.9681 16.176 74.3388 15.968 73.8481 15.552C73.3681 15.1253 73.1281 14.5653 73.1281 13.872C73.1281 13.1787 73.3575 12.6293 73.8161 12.224C74.2855 11.8187 74.9841 11.5627 75.9121 11.456L78.5041 11.12V10.656C78.5041 10.0693 78.3388 9.62133 78.0081 9.312C77.6881 8.992 77.2241 8.832 76.6161 8.832C76.0828 8.832 75.6561 8.96533 75.3361 9.232C75.0161 9.488 74.8295 9.85067 74.7761 10.32H73.4961C73.5708 9.53067 73.8908 8.90667 74.4561 8.448C75.0321 7.98933 75.7628 7.76 76.6481 7.76C77.6721 7.76 78.4561 8.00533 79.0001 8.496C79.5441 8.98667 79.8161 9.696 79.8161 10.624V14.32C79.8161 14.6933 79.8321 15.0133 79.8641 15.28C79.8961 15.536 79.9441 15.776 80.0081 16ZM74.4721 13.84C74.4721 14.2453 74.6108 14.5707 74.8881 14.816C75.1655 15.0507 75.5388 15.168 76.0081 15.168C76.7228 15.168 77.3148 14.9547 77.7841 14.528C78.2641 14.0907 78.5041 13.5253 78.5041 12.832V12.112L76.3121 12.352C75.6188 12.448 75.1388 12.6133 74.8721 12.848C74.6055 13.0827 74.4721 13.4133 74.4721 13.84ZM86.5803 16.192C85.9829 16.192 85.4389 16.0427 84.9483 15.744C84.4576 15.4453 84.0949 15.0613 83.8603 14.592V16H82.5803V4.224H83.9083V9.376C84.1323 8.88533 84.4789 8.496 84.9483 8.208C85.4283 7.90933 85.9723 7.76 86.5803 7.76C87.6363 7.76 88.4949 8.15467 89.1562 8.944C89.8283 9.72267 90.1643 10.736 90.1643 11.984C90.1643 13.232 89.8283 14.2453 89.1562 15.024C88.4843 15.8027 87.6256 16.192 86.5803 16.192ZM86.3083 8.8C85.5509 8.8 84.9483 9.07733 84.5003 9.632C84.0629 10.176 83.8443 10.9173 83.8443 11.856V12.08C83.8443 13.0187 84.0629 13.7653 84.5003 14.32C84.9483 14.8747 85.5509 15.152 86.3083 15.152C87.0763 15.152 87.6843 14.864 88.1323 14.288C88.5909 13.712 88.8203 12.944 88.8203 11.984C88.8203 11.0133 88.5909 10.24 88.1323 9.664C87.6843 9.088 87.0763 8.8 86.3083 8.8ZM93.752 4.224V16H92.424V4.224H93.752ZM101.956 13.632H103.204C103.033 14.432 102.649 15.0613 102.052 15.52C101.455 15.968 100.729 16.192 99.8759 16.192C98.7132 16.192 97.7745 15.8133 97.0599 15.056C96.3559 14.2987 96.0039 13.2853 96.0039 12.016C96.0039 10.7467 96.3559 9.72267 97.0599 8.944C97.7745 8.15467 98.6865 7.76 99.7959 7.76C100.863 7.76 101.705 8.128 102.324 8.864C102.943 9.58933 103.252 10.544 103.252 11.728V12.256H97.2999C97.3319 13.1733 97.5719 13.8827 98.0199 14.384C98.4785 14.8853 99.0972 15.136 99.8759 15.136C100.399 15.136 100.831 15.0133 101.172 14.768C101.524 14.512 101.785 14.1333 101.956 13.632ZM99.7959 8.832C99.1239 8.832 98.5745 9.05067 98.1479 9.488C97.7212 9.91467 97.4545 10.5173 97.3479 11.296H101.956C101.935 10.528 101.732 9.92533 101.348 9.488C100.975 9.05067 100.457 8.832 99.7959 8.832ZM108.494 16.192C107.449 16.192 106.59 15.8027 105.918 15.024C105.246 14.2453 104.91 13.232 104.91 11.984C104.91 10.736 105.241 9.72267 105.902 8.944C106.574 8.15467 107.438 7.76 108.494 7.76C109.102 7.76 109.641 7.90933 110.11 8.208C110.59 8.496 110.942 8.88533 111.166 9.376V4.224H112.494V16H111.214V14.592C110.979 15.0613 110.617 15.4453 110.126 15.744C109.635 16.0427 109.091 16.192 108.494 16.192ZM108.766 8.8C107.998 8.8 107.385 9.088 106.926 9.664C106.478 10.24 106.254 11.0133 106.254 11.984C106.254 12.944 106.478 13.712 106.926 14.288C107.385 14.864 107.998 15.152 108.766 15.152C109.523 15.152 110.121 14.8747 110.558 14.32C111.006 13.7653 111.23 13.0187 111.23 12.08V11.856C111.23 10.9173 111.006 10.176 110.558 9.632C110.121 9.07733 109.523 8.8 108.766 8.8Z" fill="#2B2B2B"/>
<rect x="2.5" y="2.5" width="37" height="15" rx="7.5" fill="white" stroke="#B3B3B3"/>
<rect width="20" height="20" rx="10" fill="#B3B3B3"/>
</svg>
