<svg width="70" height="20" viewBox="0 0 70 20" fill="none" xmlns="http://www.w3.org/2000/svg">
<path d="M54 4.384C55.5467 4.384 56.8 4.93333 57.76 6.032C58.72 7.12 59.2 8.53867 59.2 10.288C59.2 12.0373 58.72 13.4613 57.76 14.56C56.8107 15.648 55.5573 16.192 54 16.192C52.4427 16.192 51.184 15.648 50.224 14.56C49.2747 13.4613 48.8 12.0373 48.8 10.288C48.8 8.53867 49.28 7.12 50.24 6.032C51.2 4.93333 52.4533 4.384 54 4.384ZM54 15.024C55.184 15.024 56.1067 14.6027 56.768 13.76C57.44 12.9173 57.776 11.76 57.776 10.288C57.776 8.82667 57.44 7.67467 56.768 6.832C56.1067 5.97867 55.184 5.552 54 5.552C52.816 5.552 51.888 5.97867 51.216 6.832C50.544 7.67467 50.208 8.82667 50.208 10.288C50.208 11.76 50.5387 12.9173 51.2 13.76C51.872 14.6027 52.8053 15.024 54 15.024ZM61.632 16V8.96H60.464V7.952H61.632V6.448C61.632 5.73333 61.84 5.17867 62.256 4.784C62.672 4.37867 63.2427 4.176 63.968 4.176C64.1173 4.176 64.272 4.18667 64.432 4.208C64.6027 4.21867 64.7467 4.23467 64.864 4.256V5.312C64.768 5.30133 64.6453 5.29067 64.496 5.28C64.3573 5.26933 64.208 5.264 64.048 5.264C63.696 5.264 63.424 5.36533 63.232 5.568C63.04 5.77067 62.944 6.06933 62.944 6.464V7.952H64.672V8.96H62.944V16H61.632ZM66.6008 16V8.96H65.4328V7.952H66.6008V6.448C66.6008 5.73333 66.8088 5.17867 67.2248 4.784C67.6408 4.37867 68.2114 4.176 68.9368 4.176C69.0861 4.176 69.2408 4.18667 69.4008 4.208C69.5714 4.21867 69.7154 4.23467 69.8328 4.256V5.312C69.7368 5.30133 69.6141 5.29067 69.4648 5.28C69.3261 5.26933 69.1768 5.264 69.0168 5.264C68.6648 5.264 68.3928 5.36533 68.2008 5.568C68.0088 5.77067 67.9128 6.06933 67.9128 6.464V7.952H69.6408V8.96H67.9128V16H66.6008Z" fill="#2B2B2B"/>
<rect x="2.5" y="2.5" width="37" height="15" rx="7.5" fill="white" stroke="#2B2B2B"/>
<rect width="20" height="20" rx="10" fill="#2B2B2B"/>
</svg>
