<svg width="70" height="20" viewBox="0 0 70 20" fill="none" xmlns="http://www.w3.org/2000/svg">
<path d="M54 4.384C55.5467 4.384 56.8 4.93333 57.76 6.032C58.72 7.12 59.2 8.53867 59.2 10.288C59.2 12.0373 58.72 13.4613 57.76 14.56C56.8107 15.648 55.5573 16.192 54 16.192C52.4427 16.192 51.184 15.648 50.224 14.56C49.2747 13.4613 48.8 12.0373 48.8 10.288C48.8 8.53867 49.28 7.12 50.24 6.032C51.2 4.93333 52.4533 4.384 54 4.384ZM54 15.024C55.184 15.024 56.1067 14.6027 56.768 13.76C57.44 12.9173 57.776 11.76 57.776 10.288C57.776 8.82667 57.44 7.67467 56.768 6.832C56.1067 5.97867 55.184 5.552 54 5.552C52.816 5.552 51.888 5.97867 51.216 6.832C50.544 7.67467 50.208 8.82667 50.208 10.288C50.208 11.76 50.5387 12.9173 51.2 13.76C51.872 14.6027 52.8053 15.024 54 15.024ZM61.424 7.952H62.704V9.424C62.896 8.92267 63.2267 8.52267 63.696 8.224C64.176 7.91467 64.72 7.76 65.328 7.76C66.2347 7.76 66.9387 8.032 67.44 8.576C67.952 9.10933 68.208 9.856 68.208 10.816V16H66.88V11.104C66.88 10.3573 66.7147 9.79733 66.384 9.424C66.064 9.04 65.5893 8.848 64.96 8.848C64.2667 8.848 63.7227 9.08267 63.328 9.552C62.944 10.0213 62.752 10.6933 62.752 11.568V16H61.424V7.952Z" fill="#2B2B2B"/>
<rect x="0.5" y="2.5" width="37" height="15" rx="7.5" fill="#2B2B2B" stroke="#2B2B2B"/>
<rect x="20.5" y="0.5" width="19" height="19" rx="9.5" fill="white" stroke="#2B2B2B"/>
</svg>
