<svg width="800" height="451" viewBox="0 0 800 451" fill="none" xmlns="http://www.w3.org/2000/svg">
<g clip-path="url(#clip0_1183_4100)">
<rect width="800" height="450.048" fill="#1EB5F0"/>
<path d="M19 225.164L71.8503 214.388L75.2602 231.117L78.6701 247.845L82.08 264.574L85.4899 281.302L88.8999 298.031L92.3098 314.759L95.7197 331.488L99.1296 348.216L102.54 364.945L105.949 381.673L109.359 398.402L112.769 415.13L116.179 431.859L119.589 448.587L122.999 465.316L126.409 482.044L73.5587 492.819L19 225.164Z" fill="#52C8F5"/>
<path d="M130.218 485.301L75.6596 217.645L71.8503 214.388M130.218 485.301L77.368 496.076L73.5587 492.819M130.218 485.301L126.409 482.044M71.8503 214.388L19 225.164L73.5587 492.819M71.8503 214.388L75.2602 231.117M126.409 482.044L73.5587 492.819M126.409 482.044L122.999 465.316M99.1296 348.216L76.102 352.911M99.1296 348.216L102.54 364.945M99.1296 348.216L95.7197 331.488M85.4899 281.302L62.4623 285.997M85.4899 281.302L88.8999 298.031M85.4899 281.302L82.08 264.574M112.769 415.13L89.7417 419.825M112.769 415.13L116.179 431.859M112.769 415.13L109.359 398.402M105.949 381.673L82.9218 386.368M105.949 381.673L109.359 398.402M105.949 381.673L102.54 364.945M92.3098 314.759L69.2822 319.454M92.3098 314.759L95.7197 331.488M92.3098 314.759L88.8999 298.031M78.6701 247.845L55.6425 252.54M78.6701 247.845L82.08 264.574M78.6701 247.845L75.2602 231.117M119.589 448.587L96.5615 453.282M119.589 448.587L122.999 465.316M119.589 448.587L116.179 431.859M122.999 465.316L112.052 467.548M116.179 431.859L105.232 434.091M109.359 398.402L98.4118 400.634M102.54 364.945L91.592 367.177M95.7197 331.488L84.7721 333.72M88.8999 298.031L77.9523 300.263M82.08 264.574L71.1325 266.806M75.2602 231.117L64.3126 233.349" stroke="#0A80D5" stroke-width="2.54696"/>
<path d="M674.888 49.4489C679.951 49.4491 684.056 53.5542 684.057 58.6179V453.104H115.943V58.6179C115.944 53.5542 120.049 49.4491 125.112 49.4489H674.888Z" fill="#ECF8FF" stroke="#0A80D5" stroke-width="6.1127"/>
<rect width="217.926" height="252.932" rx="5.09392" transform="matrix(0.766139 -0.642674 0.642594 0.766207 704.583 373.83)" fill="#52C8F5" stroke="#0A80D5" stroke-width="5.09392"/>
<path d="M-118.333 -76.9469L-98.4198 -96.2601L69.5876 77.0055L49.6741 96.3187L-118.333 -76.9469Z" fill="#52C8F5"/>
<path d="M75.4025 110.655L88.8994 118.175L82.2545 104.009C80.6072 104.748 76.9307 107.111 75.4025 110.655Z" fill="#52C8F5"/>
<path d="M69.5876 77.0055L-98.4198 -96.2601L-118.333 -76.9469L49.6741 96.3187M69.5876 77.0055L49.6741 96.3187M69.5876 77.0055L82.2545 104.009M49.6741 96.3187L75.4026 110.655M75.4026 110.655L88.8994 118.175L82.2545 104.009M75.4026 110.655C76.9307 107.111 80.6072 104.748 82.2545 104.009" stroke="#0A80D5" stroke-width="2.54696" stroke-linejoin="round"/>
<ellipse cx="18.8912" cy="18.89" rx="18.8912" ry="18.89" transform="matrix(0.45192 0.892059 -0.892019 0.451997 830.341 11.552)" stroke="#0A80D5" stroke-width="2.54696"/>
<rect width="13.7116" height="11.2729" rx="2.54696" transform="matrix(0.0945548 0.99552 0.995518 -0.0945739 702.637 40.0714)" fill="#8DD5F1" stroke="#0A80D5" stroke-width="2.54696" stroke-linecap="round" stroke-linejoin="round"/>
<rect width="13.7116" height="92.0645" rx="2.54696" transform="matrix(0.0945545 0.99552 0.995518 -0.0945742 712.94 38.9932)" fill="#8DD5F1" stroke="#0A80D5" stroke-width="2.54696" stroke-linecap="round" stroke-linejoin="round"/>
<rect width="13.7108" height="89.9881" rx="2.54696" transform="matrix(-0.746749 -0.665106 0.665028 -0.746819 757.606 123.607)" fill="#8DD5F1" stroke="#0A80D5" stroke-width="2.54696" stroke-linecap="round" stroke-linejoin="round"/>
<rect width="10.6646" height="11.2729" rx="2.54696" transform="matrix(0.0945548 0.99552 0.995518 -0.094574 691.559 42.6539)" fill="#8DD5F1" stroke="#0A80D5" stroke-width="2.54696" stroke-linecap="round" stroke-linejoin="round"/>
<rect width="0" height="11.2729" transform="matrix(-0.0945548 -0.99552 0.995518 -0.094574 680.827 48.8767)" fill="#8DD5F1" stroke="#0A80D5" stroke-width="2.54696" stroke-linecap="round" stroke-linejoin="round"/>
<path d="M732.959 134.507L751.293 110.358L757.696 122.997L736.195 140.895L728.445 144.138L735.162 138.856L732.959 134.507Z" fill="#8DD5F1"/>
<path d="M736.195 140.895L757.696 122.997L751.293 110.358L732.959 134.507L735.162 138.856M736.195 140.895L735.162 138.856M736.195 140.895L728.445 144.138L735.162 138.856" stroke="#0A80D5" stroke-width="2.54696" stroke-linejoin="round"/>
<path d="M304.969 47.5516H494.781C496.188 47.5517 497.328 48.692 497.328 50.0985V64.9139C497.328 66.3203 496.188 67.4607 494.781 67.4608H304.969C303.562 67.4607 302.422 66.3203 302.422 64.9139V50.0985C302.422 48.692 303.562 47.5517 304.969 47.5516Z" fill="white" stroke="#0A80D5" stroke-width="5.09392"/>
<path d="M439.875 67.924H359.875" stroke="#0A80D5" stroke-width="12.7348" stroke-linecap="round"/>
</g>
<defs>
<clipPath id="clip0_1183_4100">
<rect width="800" height="450.048" fill="white"/>
</clipPath>
</defs>
</svg>
