<svg width="1380" height="720" viewBox="0 0 1380 720" fill="none" xmlns="http://www.w3.org/2000/svg">
<g clip-path="url(#clip0_1829_154)">
<rect width="1378.84" height="720" transform="translate(0.875977)" fill="#ECF8FF"/>
<path fill-rule="evenodd" clip-rule="evenodd" d="M1077.89 72.278C1095.79 72.278 1111.75 79.1469 1122.1 89.8643C1132.23 81.9386 1145.91 77.0763 1160.97 77.0763C1192.17 77.0763 1217.47 97.9443 1217.47 123.686C1217.47 125.529 1217.34 127.346 1217.08 129.133C1229.98 137.675 1238.24 150.791 1238.24 165.497C1238.24 191.239 1212.94 212.107 1181.74 212.107C1161.36 212.107 1143.49 203.198 1133.56 189.841C1123.62 203.198 1105.76 212.107 1085.37 212.107C1068.61 212.107 1053.56 206.089 1043.22 196.531C1033.58 202.849 1021.37 206.624 1008.1 206.624C976.903 206.624 951.61 185.756 951.61 160.014C951.61 134.272 976.903 113.404 1008.1 113.404C1012.76 113.404 1017.29 113.869 1021.62 114.746C1024.16 90.9443 1048.38 72.278 1077.89 72.278Z" fill="white"/>
<path d="M901.571 725.56H996.436M1660.49 725.56H1565.62M1281.03 725.56V380.849M1281.03 725.56H1186.17M1281.03 725.56H1375.9M1470.76 725.56V540.726M1470.76 725.56H1375.9M1470.76 725.56H1565.62M1091.3 725.56V457.17M1091.3 725.56H1186.17M1091.3 725.56H996.436M1186.17 725.56V380.849M1375.9 725.56V446.319M1565.62 725.56V540.726M996.436 725.56L993.308 614.363" stroke="#1EB5F0" stroke-width="1.41453" stroke-linejoin="round"/>
<path d="M873.772 660.907C1079.92 663.697 1025.41 380.009 1226.5 380.009C1429.86 380.009 1352.15 525.419 1522.46 525.419C1658.72 525.419 1687.19 399.542 1684.4 336.603" stroke="#8DD5F1" stroke-width="4.82625"/>
<rect x="1220.85" y="336.371" width="57.7484" height="21.803" transform="rotate(1.00973 1220.85 336.371)" fill="#8DD5F1" stroke="#8DD5F1" stroke-width="4.82625" stroke-linejoin="round"/>
<rect x="1329.55" y="351.082" width="57.7484" height="21.803" transform="rotate(29.1799 1329.55 351.082)" fill="#8DD5F1" stroke="#8DD5F1" stroke-width="4.82625" stroke-linejoin="round"/>
<circle cx="9.72295" cy="9.72295" r="9.72295" transform="matrix(-0.999845 -0.0176222 -0.0176222 0.999845 1238.67 362.028)" fill="#8DD5F1" stroke="#8DD5F1" stroke-width="4.82625"/>
<circle cx="9.72295" cy="9.72295" r="9.72295" transform="matrix(-0.873093 -0.487553 -0.487553 0.873093 1333.15 382.111)" fill="#8DD5F1" stroke="#8DD5F1" stroke-width="4.82625"/>
<rect x="1105.43" y="380.056" width="57.7484" height="21.803" transform="rotate(-33.4954 1105.43 380.056)" fill="#8DD5F1" stroke="#8DD5F1" stroke-width="4.82625" stroke-linejoin="round"/>
<circle cx="9.72295" cy="9.72295" r="9.72295" transform="matrix(-0.83393 0.55187 0.55187 0.83393 1134.65 391.106)" fill="#8DD5F1" stroke="#8DD5F1" stroke-width="4.82625"/>
<circle cx="9.72295" cy="9.72295" r="9.72295" transform="matrix(-0.83393 0.55187 0.55187 0.83393 1169.05 368.342)" fill="#8DD5F1" stroke="#8DD5F1" stroke-width="4.82625"/>
<circle cx="9.72295" cy="9.72295" r="9.72295" transform="matrix(-0.600465 -0.799651 -0.799651 0.600465 1404.82 445.058)" fill="#8DD5F1" stroke="#8DD5F1" stroke-width="4.82625"/>
<circle cx="9.72295" cy="9.72295" r="9.72295" transform="matrix(-0.999845 -0.0176222 -0.0176222 0.999845 1279.91 362.755)" fill="#8DD5F1" stroke="#8DD5F1" stroke-width="4.82625"/>
<circle cx="9.72295" cy="9.72295" r="9.72295" transform="matrix(-0.873093 -0.487553 -0.487553 0.873093 1369.16 402.222)" fill="#8DD5F1" stroke="#8DD5F1" stroke-width="4.82625"/>
<g opacity="0.5">
<path d="M322.187 576.832H526.87V661.228H322.187V576.832Z" fill="#8DD5F1" stroke="#8DD5F1" stroke-width="4.85031"/>
<path d="M379.872 661.228C402.282 641.771 411.888 622.308 424.71 575.212C433.35 621.505 442.803 640.859 469.548 661.228H379.872Z" fill="white" stroke="#8DD5F1" stroke-width="4.85031"/>
<path fill-rule="evenodd" clip-rule="evenodd" d="M336.133 576.832H306.667L424.53 483.707L336.133 576.832ZM512.927 576.832L424.53 483.707L365.599 576.832H395.064L424.53 483.707V576.832H453.996L424.53 483.707L483.461 576.832H512.927Z" fill="#8DD5F1"/>
<path d="M424.53 483.707L306.667 576.832H336.133M424.53 483.707L542.392 576.832H512.927M424.53 483.707V576.832M424.53 483.707L483.461 576.832M424.53 483.707L365.599 576.832M424.53 483.707L395.064 576.832M424.53 483.707L453.996 576.832M424.53 483.707L512.927 576.832M424.53 483.707L336.133 576.832M424.53 576.832H395.064M424.53 576.832H453.996M483.461 576.832H453.996M483.461 576.832H512.927M365.599 576.832H395.064M365.599 576.832H336.133" stroke="#8DD5F1" stroke-width="4.85031" stroke-linejoin="round"/>
</g>
<path d="M-2.90138 646.48C-16.6626 646.48 -27.8184 633.581 -27.8184 617.67C-27.8184 601.759 -16.6626 588.861 -2.90138 588.861C3.38387 588.861 9.12559 591.552 13.5091 595.991C13.4131 594.964 13.3639 593.92 13.3639 592.862C13.3639 576.951 24.5196 564.053 38.2809 564.053C52.0421 564.053 63.1978 576.951 63.1978 592.862C63.1978 592.974 63.1973 593.085 63.1962 593.197C67.0135 590.449 71.5206 588.861 76.3485 588.861C90.1097 588.861 101.265 601.759 101.265 617.67C101.265 633.581 90.1097 646.48 76.3485 646.48H-2.90138Z" fill="#8DD5F1"/>
<path d="M-7.56642 596.713C-21.3277 596.713 -32.4834 583.814 -32.4834 567.903C-32.4834 551.992 -21.3277 539.094 -7.56642 539.094C-1.28116 539.094 4.46055 541.785 8.84409 546.224C8.74809 545.196 8.69883 544.152 8.69883 543.095C8.69883 527.184 19.8545 514.286 33.6158 514.286C47.3771 514.286 58.5328 527.184 58.5328 543.095C58.5328 543.207 58.5322 543.318 58.5312 543.43C62.3484 540.681 66.8556 539.094 71.6834 539.094C85.4447 539.094 96.6004 551.992 96.6004 567.903C96.6004 583.814 85.4447 596.713 71.6834 596.713H-7.56642Z" fill="#8DD5F1"/>
<path d="M89.291 646.322C75.5297 646.322 64.374 633.424 64.374 617.513C64.374 601.602 75.5297 588.704 89.291 588.704C95.5763 588.704 101.318 591.394 105.702 595.834C105.606 594.806 105.556 593.762 105.556 592.705C105.556 576.794 116.712 563.895 130.473 563.895C144.235 563.895 155.39 576.794 155.39 592.705C155.39 592.817 155.39 592.928 155.389 593.039C159.206 590.291 163.713 588.704 168.541 588.704C182.302 588.704 193.458 601.602 193.458 617.513C193.458 633.424 182.302 646.322 168.541 646.322H89.291Z" fill="#8DD5F1"/>
<path d="M200.366 654.055C189.618 654.055 180.905 643.969 180.905 631.527C180.905 619.085 189.618 608.999 200.366 608.999C205.275 608.999 209.759 611.103 213.182 614.574C213.107 613.771 213.069 612.954 213.069 612.128C213.069 599.686 221.782 589.599 232.529 589.599C243.277 589.599 251.99 599.686 251.99 612.128C251.99 612.215 251.989 612.302 251.988 612.389C254.97 610.24 258.49 608.999 262.261 608.999C273.008 608.999 281.721 619.085 281.721 631.527C281.721 643.969 273.008 654.055 262.261 654.055H200.366Z" fill="#8DD5F1"/>
<path d="M246.981 641.022C240.991 641.022 236.134 635.332 236.134 628.314C236.134 621.295 240.991 615.605 246.981 615.605C249.717 615.605 252.217 616.792 254.125 618.751C254.083 618.297 254.062 617.837 254.062 617.37C254.062 610.352 258.918 604.662 264.908 604.662C270.899 604.662 275.755 610.352 275.755 617.37C275.755 617.42 275.755 617.469 275.754 617.518C277.416 616.306 279.378 615.605 281.48 615.605C287.47 615.605 292.327 621.295 292.327 628.314C292.327 635.332 287.47 641.022 281.48 641.022H246.981Z" fill="#8DD5F1"/>
<path d="M277.108 641.022C271.117 641.022 266.261 635.332 266.261 628.314C266.261 621.295 271.117 615.605 277.108 615.605C279.844 615.605 282.343 616.792 284.251 618.751C284.21 618.297 284.188 617.837 284.188 617.37C284.188 610.352 289.044 604.662 295.035 604.662C301.025 604.662 305.882 610.352 305.882 617.37C305.882 617.42 305.881 617.469 305.881 617.518C307.543 616.306 309.505 615.605 311.606 615.605C317.597 615.605 322.453 621.295 322.453 628.314C322.453 635.332 317.597 641.022 311.606 641.022H277.108Z" fill="#8DD5F1"/>
<path d="M294.68 653.574C288.69 653.574 283.833 647.884 283.833 640.866C283.833 633.847 288.69 628.158 294.68 628.158C297.416 628.158 299.916 629.344 301.824 631.303C301.782 630.849 301.761 630.389 301.761 629.923C301.761 622.904 306.617 617.214 312.608 617.214C318.598 617.214 323.454 622.904 323.454 629.923C323.454 629.972 323.454 630.021 323.454 630.07C325.115 628.858 327.077 628.158 329.179 628.158C335.17 628.158 340.026 633.847 340.026 640.866C340.026 647.884 335.17 653.574 329.179 653.574H294.68Z" fill="#8DD5F1"/>
<path d="M1371.1 561.01C1383.88 558.853 1392.47 546.548 1390.27 533.525C1388.07 520.503 1375.93 511.694 1363.14 513.851C1357.31 514.836 1352.34 517.938 1348.89 522.259C1348.83 521.403 1348.74 520.541 1348.59 519.675C1346.39 506.653 1334.25 497.844 1321.47 500.001C1308.68 502.158 1300.1 514.463 1302.3 527.486C1302.32 527.577 1302.33 527.668 1302.35 527.759C1298.42 526.108 1294.02 525.515 1289.53 526.272C1276.75 528.429 1268.17 540.734 1270.37 553.756C1272.56 566.779 1284.71 575.587 1297.49 573.43L1371.1 561.01Z" fill="#8DD5F1"/>
<path d="M1379.99 533.055C1391.36 531.136 1398.78 518.922 1396.56 505.774C1394.35 492.626 1383.33 483.523 1371.96 485.442C1366.76 486.318 1362.39 489.342 1359.39 493.622C1359.33 492.759 1359.22 491.89 1359.07 491.016C1356.86 477.868 1345.84 468.765 1334.47 470.684C1323.1 472.602 1315.68 484.816 1317.89 497.964C1317.91 498.057 1317.93 498.149 1317.94 498.241C1314.4 496.502 1310.46 495.818 1306.47 496.492C1295.1 498.41 1287.68 510.624 1289.9 523.772C1292.11 536.921 1303.13 546.024 1314.5 544.105L1379.99 533.055Z" fill="#8DD5F1"/>
<path d="M1274.75 578.927C1283.25 577.493 1288.8 568.361 1287.14 558.531C1285.48 548.701 1277.25 541.895 1268.74 543.33C1264.86 543.985 1261.59 546.246 1259.35 549.446C1259.3 548.801 1259.22 548.15 1259.11 547.497C1257.45 537.667 1249.22 530.861 1240.72 532.296C1232.21 533.73 1226.67 542.862 1228.32 552.692C1228.34 552.761 1228.35 552.83 1228.36 552.899C1225.72 551.599 1222.77 551.088 1219.78 551.591C1211.28 553.026 1205.73 562.157 1207.39 571.987C1209.05 581.817 1217.29 588.623 1225.79 587.189L1274.75 578.927Z" fill="#8DD5F1"/>
<path d="M1140.5 613.102C1146.4 612.105 1150.24 605.687 1149.08 598.766C1147.91 591.845 1142.17 587.043 1136.27 588.039C1133.57 588.495 1131.3 590.081 1129.75 592.329C1129.71 591.875 1129.66 591.418 1129.58 590.958C1128.41 584.037 1122.68 579.235 1116.77 580.231C1110.86 581.228 1107.02 587.646 1108.19 594.567C1108.2 594.616 1108.2 594.664 1108.21 594.713C1106.37 593.794 1104.32 593.43 1102.25 593.779C1096.34 594.776 1092.5 601.194 1093.67 608.115C1094.84 615.036 1100.57 619.838 1106.48 618.842L1140.5 613.102Z" fill="#8DD5F1"/>
<path d="M1110.79 601.434C1116.7 600.438 1120.54 594.019 1119.37 587.099C1118.2 580.178 1112.47 575.376 1106.56 576.372C1103.86 576.827 1101.6 578.414 1100.04 580.662C1100.01 580.208 1099.95 579.751 1099.87 579.291C1098.71 572.37 1092.97 567.568 1087.06 568.564C1081.16 569.561 1077.31 575.979 1078.48 582.9C1078.49 582.949 1078.5 582.997 1078.51 583.045C1076.67 582.127 1074.62 581.762 1072.54 582.112C1066.64 583.109 1062.79 589.527 1063.96 596.448C1065.13 603.369 1070.87 608.171 1076.77 607.174L1110.79 601.434Z" fill="#8DD5F1"/>
<path d="M1094.56 625.448C1100.46 624.452 1104.31 618.033 1103.14 611.113C1101.97 604.192 1096.23 599.389 1090.33 600.386C1087.63 600.841 1085.36 602.428 1083.81 604.676C1083.77 604.222 1083.72 603.764 1083.64 603.305C1082.47 596.384 1076.74 591.581 1070.83 592.578C1064.92 593.575 1061.08 599.993 1062.25 606.914C1062.26 606.963 1062.27 607.011 1062.27 607.059C1060.43 606.14 1058.38 605.776 1056.31 606.126C1050.4 607.123 1046.56 613.541 1047.73 620.462C1048.9 627.383 1054.63 632.185 1060.54 631.188L1094.56 625.448Z" fill="#8DD5F1"/>
<path fill-rule="evenodd" clip-rule="evenodd" d="M92.1553 88.9575C114.551 88.9575 134.515 98.1067 147.465 112.382C160.136 101.825 177.256 95.3491 196.099 95.3491C235.136 95.3491 266.782 123.146 266.782 157.434C266.782 159.888 266.62 162.309 266.304 164.688C282.44 176.067 292.769 193.538 292.769 213.127C292.769 247.416 261.123 275.212 222.086 275.212C196.579 275.212 174.228 263.345 161.798 245.553C149.369 263.345 127.017 275.212 101.51 275.212C80.5475 275.212 61.716 267.197 48.7719 254.464C36.7093 262.881 21.444 267.909 4.84174 267.909C-34.1952 267.909 -65.8408 240.112 -65.8408 205.824C-65.8408 171.535 -34.1952 143.738 4.84174 143.738C10.6687 143.738 16.331 144.358 21.7479 145.526C24.9262 113.821 55.235 88.9575 92.1553 88.9575Z" fill="white"/>
<g opacity="0.5">
<path d="M546.405 507.152H921.768V661.923H546.405V507.152Z" fill="#8DD5F1" stroke="#8DD5F1" stroke-width="5.83998"/>
<path d="M652.189 661.923C693.287 626.242 710.903 590.548 734.417 504.181C750.261 589.075 767.597 624.569 816.644 661.923H652.189Z" fill="white" stroke="#8DD5F1" stroke-width="5.83998"/>
<path fill-rule="evenodd" clip-rule="evenodd" d="M571.978 507.152H517.942L734.087 336.371L571.978 507.152ZM896.196 507.152L734.087 336.371L626.015 507.152H680.051L734.087 336.371V507.152H788.124L734.087 336.371L842.16 507.152H896.196Z" fill="#8DD5F1"/>
<path d="M734.087 336.371L517.942 507.152H571.978M734.087 336.371L950.232 507.152H896.196M734.087 336.371V507.152M734.087 336.371L842.16 507.152M734.087 336.371L626.015 507.152M734.087 336.371L680.051 507.152M734.087 336.371L788.123 507.152M734.087 336.371L896.196 507.152M734.087 336.371L571.978 507.152M734.087 507.152H680.051M734.087 507.152H788.123M842.16 507.152H788.123M842.16 507.152H896.196M626.015 507.152H680.051M626.015 507.152H571.978" stroke="#8DD5F1" stroke-width="5.83998" stroke-linejoin="round"/>
</g>
<path fill-rule="evenodd" clip-rule="evenodd" d="M248.798 376.167L242.084 356.564H255.513L248.798 376.167Z" fill="#8DD5F1"/>
<path d="M255.857 356.564H255.513L248.798 376.167L350.55 673.228H364.324L255.857 356.564Z" fill="#8DD5F1"/>
<path fill-rule="evenodd" clip-rule="evenodd" d="M248.798 376.167L255.513 356.564H242.084L248.798 376.167Z" fill="#8DD5F1"/>
<path d="M242.084 356.564H241.739L133.272 673.228H147.046L248.798 376.167L242.084 356.564Z" fill="#8DD5F1"/>
<circle cx="248.904" cy="345.323" r="38.4592" transform="rotate(11.729 248.904 345.323)" fill="#8DD5F1"/>
<path d="M224.948 545.164C223.021 554.449 213.932 560.413 204.647 558.485C195.363 556.557 189.399 547.468 191.327 538.184C193.254 528.9 202.343 522.936 211.628 524.863C220.912 526.791 226.876 535.88 224.948 545.164Z" fill="#8DD5F1"/>
<path d="M306.48 152.464C304.552 161.748 295.463 167.712 286.179 165.784C276.894 163.857 270.931 154.768 272.858 145.483C274.786 136.199 283.875 130.235 293.159 132.163C302.444 134.09 308.407 143.179 306.48 152.464Z" fill="#8DD5F1"/>
<path d="M448.744 369.279C458.028 371.206 463.992 380.295 462.064 389.58C460.137 398.864 451.048 404.828 441.763 402.9C432.479 400.973 426.515 391.884 428.443 382.599C430.37 373.315 439.459 367.351 448.744 369.279Z" fill="#8DD5F1"/>
<path d="M56.0432 287.747C65.3275 289.675 71.2914 298.764 69.3638 308.048C67.4362 317.333 58.3471 323.297 49.0628 321.369C39.7784 319.441 33.8146 310.352 35.7422 301.068C37.6697 291.784 46.7588 285.82 56.0432 287.747Z" fill="#8DD5F1"/>
<path d="M373.273 503.571C378.475 511.499 376.265 522.143 368.337 527.345C360.409 532.547 349.765 530.337 344.563 522.409C339.361 514.481 341.571 503.837 349.499 498.635C357.427 493.433 368.071 495.643 373.273 503.571Z" fill="#8DD5F1"/>
<path d="M153.243 168.239C158.445 176.167 156.235 186.811 148.307 192.013C140.379 197.215 129.735 195.005 124.533 187.077C119.331 179.149 121.541 168.505 129.469 163.303C137.397 158.101 148.041 160.31 153.243 168.239Z" fill="#8DD5F1"/>
<path d="M407.151 220.954C415.079 215.752 425.723 217.962 430.925 225.89C436.127 233.818 433.917 244.462 425.989 249.664C418.061 254.866 407.417 252.656 402.215 244.728C397.013 236.8 399.222 226.156 407.151 220.954Z" fill="#8DD5F1"/>
<path d="M71.8179 440.984C79.7459 435.782 90.3899 437.992 95.592 445.92C100.794 453.848 98.5841 464.492 90.6561 469.694C82.728 474.896 72.084 472.686 66.882 464.758C61.68 456.83 63.8898 446.186 71.8179 440.984Z" fill="#8DD5F1"/>
<path d="M424.428 443.818C432.271 449.147 434.309 459.825 428.981 467.669C423.652 475.512 412.974 477.551 405.13 472.222C397.287 466.893 395.248 456.215 400.577 448.371C405.906 440.528 416.584 438.49 424.428 443.818Z" fill="#8DD5F1"/>
<path d="M92.6765 218.425C100.52 223.754 102.558 234.432 97.2295 242.275C91.9006 250.119 81.2225 252.157 73.3791 246.828C65.5357 241.499 63.4973 230.821 68.8261 222.978C74.1549 215.134 84.8331 213.096 92.6765 218.425Z" fill="#8DD5F1"/>
<path d="M347.399 169.799C352.727 161.956 363.405 159.917 371.249 165.246C379.092 170.575 381.131 181.253 375.802 189.096C370.473 196.94 359.795 198.978 351.951 193.649C344.108 188.321 342.07 177.642 347.399 169.799Z" fill="#8DD5F1"/>
<path d="M122.005 501.55C127.334 493.707 138.012 491.668 145.855 496.997C153.699 502.326 155.737 513.004 150.408 520.848C145.079 528.691 134.401 530.729 126.558 525.401C118.714 520.072 116.676 509.393 122.005 501.55Z" fill="#8DD5F1"/>
<path d="M303.545 539.036C305.331 548.348 299.23 557.346 289.917 559.132C280.605 560.918 271.607 554.817 269.821 545.505C268.035 536.192 274.136 527.195 283.448 525.408C292.761 523.622 301.758 529.723 303.545 539.036Z" fill="#8DD5F1"/>
<path d="M227.985 145.142C229.772 154.455 223.671 163.452 214.358 165.239C205.046 167.025 196.048 160.924 194.262 151.612C192.475 142.299 198.576 133.302 207.889 131.515C217.202 129.729 226.199 135.83 227.985 145.142Z" fill="#8DD5F1"/>
<path d="M442.615 290.682C451.928 288.896 460.925 294.997 462.712 304.309C464.498 313.622 458.397 322.619 449.084 324.406C439.772 326.192 430.774 320.091 428.988 310.778C427.202 301.466 433.303 292.468 442.615 290.682Z" fill="#8DD5F1"/>
<path d="M48.722 366.241C58.0346 364.455 67.0321 370.556 68.8185 379.869C70.6049 389.181 64.5037 398.179 55.1912 399.965C45.8786 401.752 36.8811 395.65 35.0947 386.338C33.3083 377.025 39.4095 368.028 48.722 366.241Z" fill="#8DD5F1"/>
<circle cx="248.904" cy="345.323" r="82.4127" transform="rotate(11.729 248.904 345.323)" stroke="#8DD5F1" stroke-width="9.09955"/>
<circle cx="248.902" cy="345.325" r="140.788" transform="rotate(11.729 248.902 345.325)" stroke="#8DD5F1" stroke-width="9.09955"/>
<path d="M361.706 179.521L248.903 345.324M361.706 179.521C384.187 194.816 402.579 213.874 416.613 235.281M361.706 179.521C339.224 164.226 314.744 154.116 289.679 148.923M414.707 458.127L248.903 345.324M414.707 458.127C399.412 480.608 380.354 499.001 358.947 513.035M414.707 458.127C430.002 435.646 440.111 411.165 445.305 386.101M136.101 511.128L248.903 345.324M136.101 511.128C113.619 495.833 95.227 476.775 81.1929 455.368M136.101 511.128C158.582 526.423 183.062 536.533 208.127 541.726M83.0995 232.522L248.903 345.324M83.0995 232.522C98.3943 210.041 117.453 191.648 138.859 177.614M83.0995 232.522C67.8046 255.003 57.6949 279.484 52.5015 304.548M248.903 345.324L445.908 307.847M248.903 345.324L51.8988 382.802M248.903 345.324L211.426 148.32M248.903 345.324L286.381 542.329M248.903 345.324L416.613 235.281M248.903 345.324L81.1929 455.368M248.903 345.324L138.859 177.614M248.903 345.324L358.947 513.035M248.903 345.324L445.305 386.101M248.903 345.324L52.5015 304.548M248.903 345.324L289.679 148.923M248.903 345.324L208.127 541.726M445.908 307.847C441.026 282.185 431.161 257.471 416.613 235.281M445.908 307.847C450.789 333.509 450.688 360.119 445.305 386.101M51.8988 382.802C56.7806 408.464 66.6452 433.178 81.1929 455.368M51.8988 382.802C47.0169 357.14 47.1179 330.53 52.5015 304.548M211.426 148.32C185.764 153.202 161.05 163.067 138.859 177.614M211.426 148.32C237.088 143.438 263.697 143.539 289.679 148.923M286.381 542.329C312.042 537.447 336.757 527.582 358.947 513.035M286.381 542.329C260.719 547.211 234.109 547.11 208.127 541.726" stroke="#8DD5F1" stroke-width="4.54977"/>
<path d="M602.729 646.332C215.708 623.862 -19.7407 620.034 -57.5029 614.188L-20.0824 731.12H1460.33V539.305C1136.47 564.324 1156.37 678.475 602.729 646.332Z" fill="#AFE8C2"/>
<g opacity="0.3" clip-path="url(#clip1_1829_154)">
<path d="M996.31 112.875C973.527 130.535 968.031 149.073 977.713 175.492C985.366 196.353 997.732 213.73 1004.83 213.589C1002.03 200.105 998.738 186.7 996.598 173.106C994.105 157.283 993.945 141.303 998.706 125.716C1000.58 119.594 1001.97 111.227 1009.79 111.196C1018.13 111.164 1019.57 119.814 1021.33 126.171C1027.93 150.125 1024.52 173.875 1018.82 197.468C1017.54 202.774 1015.98 208.001 1014.04 215.159C1017.49 213.715 1020.34 213.416 1021.52 211.894C1032.21 198.08 1041.49 183.403 1045.12 166.136C1049.83 143.752 1043.7 125.386 1022.9 112.813C1051.24 114.994 1069.74 142.402 1060.33 168.145C1054.32 184.58 1042.51 197.028 1030.21 209.115C1027.74 211.548 1026.09 214.813 1024.08 217.717C1023.93 217.921 1024.39 219.614 1024.39 219.614C1016.67 220.367 1008.4 220.182 1000.67 220.386C999.042 220.433 997.237 217.545 995.687 215.865C993.77 213.777 992.22 211.36 990.207 209.366C978.017 197.185 966.338 184.643 959.931 168.412C949.93 143.014 968.191 115.261 996.31 112.875Z" fill="#8DD5F1"/>
<path d="M995.583 226.842C1006.97 226.842 1015.33 226.842 1025.97 226.842C1024.18 233.309 1024.28 241.597 1020.78 243.496C1015.78 246.212 1007.09 246.243 1001.99 243.622C998.331 241.754 997.948 233.67 995.583 226.842Z" fill="#8DD5F1"/>
</g>
</g>
<defs>
<clipPath id="clip0_1829_154">
<rect width="1378.84" height="720" fill="white" transform="translate(0.875977)"/>
</clipPath>
<clipPath id="clip1_1829_154">
<rect width="105.637" height="144.556" fill="white" transform="translate(957.169 111.197)"/>
</clipPath>
</defs>
</svg>
