<svg width="1280" height="720" viewBox="0 0 1280 720" fill="none" xmlns="http://www.w3.org/2000/svg">
<g clip-path="url(#clip0_1183_11388)">
<rect x="-54" width="1280" height="720" fill="#FCF4E4"/>
<rect x="0.815918" y="-31.3334" width="1280" height="720" fill="#DDFFE4"/>
<path opacity="0.5" d="M-31.8511 65.3529C-9.29552 0.797333 84.3489 -128.78 278.482 -130.647C472.616 -132.514 508.704 -0.758224 502.482 65.3529C529.149 45.464 601.216 21.0862 676.149 82.6862C751.082 144.286 756.705 209.02 750.149 233.686C763.371 222.131 802.149 208.553 851.482 246.686C900.816 284.82 882.482 370.575 867.149 408.686C976.371 306.353 1218.55 177.486 1313.48 480.686V727.02H-31.8511V65.3529Z" fill="#AFE8C2"/>
<path d="M-31.1841 520.667H1286.15V723.333H-31.1841V520.667Z" fill="#8DD5F1"/>
<path d="M1172.04 558.655C1172.04 558.655 1196.45 563.231 1195.91 573.797C1195.37 584.364 1160.24 589.179 1157.69 588.666M1158.23 607.7C1161.97 608.473 1182.5 616.091 1182.7 623.119C1183.14 638.667 1162.2 652.641 1154.48 652.667M128.966 605.233C120.159 604.606 102.866 609.673 102.384 617.424C101.903 625.174 130.106 644.276 141.938 648.236M77.2735 569.2C74.9317 569.267 69.7298 574.574 69.6499 579.969C69.5701 585.364 85.3016 591.146 93.1774 593.362" stroke="white" stroke-width="1.33333" stroke-linecap="round"/>
<path d="M600.74 505.403C641.448 331.356 982.968 407.297 972.098 444.29C948.943 318.062 1056.19 217.555 1134.43 236.032C1205.85 252.899 1277.73 302.623 1235.35 420.561C1303.62 419.518 1292.35 498.009 1278.18 537.385L1289.56 583.549C1283.3 605.493 1259.17 602.905 1247.9 598.868L1260.74 637.017L1267.98 659.553C1224.94 676.569 1111.9 731.016 1005.17 720.783C932.735 713.838 754.742 711.218 598.207 708.914L598.215 708.915L598.211 708.914C597.925 731.887 598.207 708.914 598.207 708.914C466.44 706.975 349.871 705.259 324.251 701.375C313.611 699.763 299.215 698.37 282.35 696.739C210.354 689.777 93.6413 655.49 31.7791 604.09L37.2725 588.681L47.3258 561.867C20.1828 563.474 -34.0889 559.796 -34.0332 532.224C-23.1187 512.309 -5.19642 489.554 6.62755 476.102C13.0706 440.414 36.9204 367.516 80.7744 361.428C124.629 355.341 128.89 449.053 125.539 496.669L600.74 505.403Z" fill="#71DF96"/>
<path d="M1281.89 702.891C1271.82 720.897 1201.24 778.499 1000.56 772.972C819.532 767.987 632.663 765.288 495.991 763.313L495.984 763.313C443.275 762.552 398.032 761.898 363.47 761.263C239.291 758.981 37.818 689.792 21.6064 632.625L31.7791 604.09C93.6413 655.49 210.354 689.777 282.35 696.739C299.215 698.37 313.611 699.763 324.251 701.375C349.871 705.259 466.44 706.975 598.207 708.914L598.211 708.914L598.215 708.915L598.207 708.914C754.742 711.218 932.735 713.838 1005.17 720.783C1111.9 731.016 1224.94 676.569 1267.98 659.553L1281.89 702.891Z" fill="#D68100"/>
<path d="M37.2725 588.681C14.8387 588.077 -32.4251 582.689 -42.0102 565.969C-45.9865 559.033 -41.7708 546.342 -34.0332 532.224C-34.0889 559.796 20.1828 563.474 47.3258 561.867L37.2725 588.681Z" fill="#D68100"/>
<path d="M1299.09 622.212C1294.35 627.294 1280.04 637.371 1260.74 637.017L1247.9 598.868C1259.17 602.905 1283.3 605.493 1289.56 583.549L1299.09 622.212Z" fill="#D68100"/>
<path d="M742.922 555.046L15.499 541.677C19.3192 486.642 14.4975 378.336 -35.3509 385.387C-85.1991 392.438 -112.325 476.699 -119.657 517.948C-133.1 533.499 -153.477 559.805 -165.888 582.825C-171.2 615.163 -106.773 622.92 -75.9201 621.053L-84.8515 648.05L-91.099 665.861C-20.7953 725.246 111.858 764.831 193.692 772.853L193.698 772.854C212.865 774.732 229.225 776.336 241.317 778.196C270.438 782.676 402.935 784.618 552.709 786.813C552.71 786.813 552.382 813.364 552.713 786.813L552.709 786.813C730.635 789.421 932.95 792.386 1015.28 800.388C1136.59 812.177 1265.09 749.211 1314.02 729.529L1305.8 703.485L1291.21 659.399C1304.02 664.061 1331.44 667.043 1338.57 641.68C1330.62 609.254 1291.52 542.437 1198.66 534.57C1105.79 526.704 856.14 544.943 742.922 555.046Z" fill="#AFE8C2"/>
<path d="M32.3994 434.774C39.4263 456.871 44.1074 470.483 42.1286 491.56C66.4315 442.101 95.6028 430.929 122.202 437.068C148.839 443.215 172.896 466.72 186.901 486.516C342.991 420.969 500.195 443.234 602.55 502.828C612.07 472.015 645.108 411.692 701.098 416.902C757.089 422.113 789.285 478.554 798.384 506.123C822.703 481.075 888.793 433.54 958.601 443.787C1028.41 454.033 1080.1 482.674 1097.22 495.714C1091.95 463.22 1093.34 397.817 1141.03 396.155C1188.72 394.494 1220.47 451.372 1218.9 484.104C1259.14 497.075 1378.89 537.804 1302.16 561.758L-10.0114 557.432C-20.6542 537.469 -58.6128 414.476 -32.4117 401.18C0.339723 384.561 28.2927 420.386 32.3994 434.774Z" fill="#AFE8C2"/>
<path d="M1058.42 302.667L1084.11 467.68H1032.74L1058.42 302.667Z" fill="#FCF4E4"/>
<path d="M1058.42 412.675L1055.47 496.318H1058.42H1061.38L1058.42 412.675Z" fill="#995200"/>
<path d="M975.888 382.678L990.96 479.512H960.816L975.888 382.678Z" fill="#71DF96"/>
<path d="M975.889 447.234L974.155 496.318H975.889H977.623L975.889 447.234Z" fill="#995200"/>
<path d="M169.428 395.333L185.373 497.778H153.482L169.428 395.333Z" fill="#3DD771"/>
<path d="M169.428 463.63L167.593 515.558H169.428H171.262L169.428 463.63Z" fill="#995200"/>
<path d="M217.351 404.097L229.058 479.309H205.645L217.351 404.097Z" fill="#AFE8C2"/>
<path d="M217.351 454.238L216.005 492.362H217.351H218.698L217.351 454.238Z" fill="#995200"/>
<path d="M187.856 424.667L199.562 499.879H176.149L187.856 424.667Z" fill="#FCF4E4"/>
<path d="M187.856 474.808L186.51 512.932H187.856H189.203L187.856 474.808Z" fill="#995200"/>
<path d="M995.502 355.44L1013.59 471.649H977.414L995.502 355.44Z" fill="#FCF4E4"/>
<path d="M995.503 432.913L993.422 491.818H995.503H997.583L995.503 432.913Z" fill="#995200"/>
<path d="M1105.02 382.667L1124.56 508.212H1085.48L1105.02 382.667Z" fill="#3DD771"/>
<path d="M1105.02 470.76L1102.78 534.397H1105.02H1107.27L1105.02 470.76Z" fill="#995200"/>
<path d="M1120.14 422L1135.46 520.436H1104.82L1120.14 422Z" fill="#149A53"/>
<path d="M1120.14 491.071L1118.38 540.967H1120.14H1121.9L1120.14 491.071Z" fill="#995200"/>
<path d="M113.777 416L132.738 537.82H94.8158L113.777 416Z" fill="#FCF4E4"/>
<path d="M113.778 497.214L111.596 558.963H113.778H115.959L113.778 497.214Z" fill="#995200"/>
</g>
<defs>
<clipPath id="clip0_1183_11388">
<rect width="1280" height="720" fill="white"/>
</clipPath>
</defs>
</svg>
