<svg width="800" height="450" viewBox="0 0 800 450" fill="none" xmlns="http://www.w3.org/2000/svg">
<g clip-path="url(#clip0_1183_4241)">
<rect width="800" height="450" fill="#D68100"/>
<g clip-path="url(#clip1_1183_4241)">
<path d="M800 0H0V450H800V0Z" fill="#FF7E3B"/>
<g clip-path="url(#clip2_1183_4241)">
<path d="M27.1438 204.81H-6.10962V237.788H27.1438V204.81Z" fill="#FF9F6C"/>
<path d="M27.1438 242.09H-6.10962V275.069H27.1438V242.09Z" fill="#FF9F6C"/>
<path d="M65.5342 204.81H32.2808V237.788H65.5342V204.81Z" fill="#FF9F6C"/>
<path d="M65.5342 242.09H32.2808V275.069H65.5342V242.09Z" fill="#FF9F6C"/>
<path d="M103.8 204.81H70.5464V237.788H103.8V204.81Z" fill="#FF9F6C"/>
<path d="M103.8 242.09H70.5464V275.069H103.8V242.09Z" fill="#FF9F6C"/>
<path d="M142.766 204.81H109.513V237.788H142.766V204.81Z" fill="#FF9F6C"/>
<path d="M142.766 242.09H109.513V275.069H142.766V242.09Z" fill="#FF9F6C"/>
<path d="M181.007 204.81H147.753V237.788H181.007V204.81Z" fill="#FF9F6C"/>
<path d="M181.007 242.09H147.753V275.069H181.007V242.09Z" fill="#FF9F6C"/>
<path d="M219.422 204.81H186.169V237.788H219.422V204.81Z" fill="#FF9F6C"/>
<path d="M219.422 242.09H186.169V275.069H219.422V242.09Z" fill="#FF9F6C"/>
<path d="M257.663 204.81H224.409V237.788H257.663V204.81Z" fill="#FF9F6C"/>
<path d="M257.663 242.09H224.409V275.069H257.663V242.09Z" fill="#FF9F6C"/>
<g opacity="0.4">
<path opacity="0.4" d="M-39.0873 210.444C-39.1074 211.186 -38.979 211.926 -38.7097 212.618C-38.4404 213.31 -38.0357 213.94 -37.5194 214.473C-37.0031 215.005 -36.3858 215.428 -35.7039 215.717C-35.022 216.006 -34.2893 216.154 -33.5493 216.154H224.986C225.746 216.205 226.508 216.099 227.226 215.842C227.944 215.586 228.602 215.184 229.158 214.661C229.715 214.139 230.158 213.507 230.462 212.805C230.765 212.104 230.922 211.347 230.922 210.582C230.922 209.817 230.765 209.06 230.462 208.359C230.158 207.657 229.715 207.025 229.158 206.503C228.602 205.981 227.944 205.578 227.226 205.322C226.508 205.065 225.746 204.959 224.986 205.01H-33.5493C-34.9966 205.01 -36.3866 205.578 -37.4216 206.594C-38.4567 207.609 -39.0546 208.991 -39.0873 210.444Z" fill="#FF9F6C"/>
</g>
<path d="M295.927 204.81H262.674V237.788H295.927V204.81Z" fill="#FF9F6C"/>
<path d="M295.927 242.09H262.674V275.069H295.927V242.09Z" fill="#FF9F6C"/>
<path d="M334.168 204.81H300.914V237.788H334.168V204.81Z" fill="#FF9F6C"/>
<path d="M334.168 242.09H300.914V275.069H334.168V242.09Z" fill="#FF9F6C"/>
<path d="M372.583 204.81H339.33V237.788H372.583V204.81Z" fill="#FF9F6C"/>
<path d="M372.583 242.09H339.33V275.069H372.583V242.09Z" fill="#FF9F6C"/>
<path d="M410.824 204.81H377.57V237.788H410.824V204.81Z" fill="#FF9F6C"/>
<path d="M410.824 242.09H377.57V275.069H410.824V242.09Z" fill="#FF9F6C"/>
<path d="M449.79 204.81H416.537V237.788H449.79V204.81Z" fill="#FF9F6C"/>
<path d="M449.79 242.09H416.537V275.069H449.79V242.09Z" fill="#FF9F6C"/>
<path d="M488.056 204.81H454.802V237.788H488.056V204.81Z" fill="#FF9F6C"/>
<path d="M488.056 242.09H454.802V275.069H488.056V242.09Z" fill="#FF9F6C"/>
<path d="M526.446 204.81H493.193V237.788H526.446V204.81Z" fill="#FF9F6C"/>
<path d="M526.446 242.09H493.193V275.069H526.446V242.09Z" fill="#FF9F6C"/>
<path d="M564.712 204.81H531.458V237.788H564.712V204.81Z" fill="#FF9F6C"/>
<path d="M564.712 242.09H531.458V275.069H564.712V242.09Z" fill="#FF9F6C"/>
<path d="M603.102 204.81H569.849V237.788H603.102V204.81Z" fill="#FF9F6C"/>
<path d="M603.102 242.09H569.849V275.069H603.102V242.09Z" fill="#FF9F6C"/>
<path d="M641.367 204.81H608.114V237.788H641.367V204.81Z" fill="#FF9F6C"/>
<path d="M641.367 242.09H608.114V275.069H641.367V242.09Z" fill="#FF9F6C"/>
<path d="M679.758 204.81H646.505V237.788H679.758V204.81Z" fill="#FF9F6C"/>
<path d="M679.758 242.09H646.505V275.069H679.758V242.09Z" fill="#FF9F6C"/>
<path d="M718.023 204.81H684.77V237.788H718.023V204.81Z" fill="#FF9F6C"/>
<path d="M718.023 242.09H684.77V275.069H718.023V242.09Z" fill="#FF9F6C"/>
<path d="M756.99 204.81H723.737V237.788H756.99V204.81Z" fill="#FF9F6C"/>
<path d="M756.99 242.09H723.737V275.069H756.99V242.09Z" fill="#FF9F6C"/>
<path d="M795.255 204.81H762.002V237.788H795.255V204.81Z" fill="#FF9F6C"/>
<path d="M795.255 242.09H762.002V275.069H795.255V242.09Z" fill="#FF9F6C"/>
<path d="M27.1438 166.875H-6.10962V199.854H27.1438V166.875Z" fill="#FF9F6C"/>
<path d="M65.5342 166.875H32.2808V199.854H65.5342V166.875Z" fill="#FF9F6C"/>
<path d="M103.8 166.875H70.5464V199.854H103.8V166.875Z" fill="#FF9F6C"/>
<path d="M142.766 166.875H109.513V199.854H142.766V166.875Z" fill="#FF9F6C"/>
<path d="M181.007 166.875H147.753V199.854H181.007V166.875Z" fill="#FF9F6C"/>
<path d="M219.422 166.875H186.169V199.854H219.422V166.875Z" fill="#FF9F6C"/>
<path d="M257.663 166.875H224.409V199.854H257.663V166.875Z" fill="#FF9F6C"/>
<path d="M295.927 166.875H262.674V199.854H295.927V166.875Z" fill="#FF9F6C"/>
<path d="M334.168 166.875H300.914V199.854H334.168V166.875Z" fill="#FF9F6C"/>
<path d="M372.583 166.875H339.33V199.854H372.583V166.875Z" fill="#FF9F6C"/>
<path d="M410.824 166.875H377.57V199.854H410.824V166.875Z" fill="#FF9F6C"/>
<path d="M449.79 166.875H416.537V199.854H449.79V166.875Z" fill="#FF9F6C"/>
<path d="M488.056 166.875H454.802V199.854H488.056V166.875Z" fill="#FF9F6C"/>
<path d="M526.446 166.875H493.193V199.854H526.446V166.875Z" fill="#FF9F6C"/>
<path d="M564.712 166.875H531.458V199.854H564.712V166.875Z" fill="#FF9F6C"/>
<path d="M603.102 166.875H569.849V199.854H603.102V166.875Z" fill="#FF9F6C"/>
<path d="M641.367 166.875H608.114V199.854H641.367V166.875Z" fill="#FF9F6C"/>
<path d="M679.758 166.875H646.505V199.854H679.758V166.875Z" fill="#FF9F6C"/>
<path d="M718.023 166.875H684.77V199.854H718.023V166.875Z" fill="#FF9F6C"/>
<path d="M756.99 166.875H723.737V199.854H756.99V166.875Z" fill="#FF9F6C"/>
<path d="M795.255 166.875H762.002V199.854H795.255V166.875Z" fill="#FF9F6C"/>
</g>
<rect x="-10.2429" y="418.812" width="814.215" height="5.44643" rx="2.72322" fill="#DA5107"/>
<g clip-path="url(#clip3_1183_4241)">
<path d="M15.4012 122.337C15.4345 122.511 15.429 122.69 15.3851 122.862C15.3411 123.033 15.2598 123.193 15.1469 123.33C15.0341 123.466 14.8924 123.576 14.7322 123.652C14.5719 123.727 14.3969 123.766 14.2198 123.766C14.0426 123.766 13.8677 123.727 13.7074 123.652C13.5471 123.576 13.4055 123.466 13.2926 123.33C13.1797 123.193 13.0984 123.033 13.0545 122.862C13.0105 122.69 13.005 122.511 13.0383 122.337V101.637C13.005 101.463 13.0105 101.284 13.0545 101.112C13.0984 100.941 13.1797 100.781 13.2926 100.645C13.4055 100.508 13.5471 100.398 13.7074 100.323C13.8677 100.247 14.0426 100.208 14.2198 100.208C14.3969 100.208 14.5719 100.247 14.7322 100.323C14.8924 100.398 15.0341 100.508 15.1469 100.645C15.2598 100.781 15.3411 100.941 15.3851 101.112C15.429 101.284 15.4345 101.463 15.4012 101.637V122.337ZM20.4277 122.337C20.4277 122.645 20.3055 122.94 20.0879 123.157C19.8704 123.375 19.5754 123.497 19.2677 123.497C18.9601 123.497 18.6651 123.375 18.4475 123.157C18.23 122.94 18.1078 122.645 18.1078 122.337V101.637C18.1078 101.329 18.23 101.035 18.4475 100.817C18.6651 100.6 18.9601 100.477 19.2677 100.477C19.5754 100.477 19.8704 100.6 20.0879 100.817C20.3055 101.035 20.4277 101.329 20.4277 101.637V122.337ZM25.4971 122.337C25.5305 122.511 25.5249 122.69 25.481 122.862C25.437 123.033 25.3557 123.193 25.2428 123.33C25.13 123.466 24.9884 123.576 24.8281 123.652C24.6678 123.727 24.4928 123.766 24.3157 123.766C24.1385 123.766 23.9636 123.727 23.8033 123.652C23.643 123.576 23.5014 123.466 23.3885 123.33C23.2757 123.193 23.1944 123.033 23.1504 122.862C23.1064 122.69 23.1009 122.511 23.1343 122.337V101.637C23.1009 101.463 23.1064 101.284 23.1504 101.112C23.1944 100.941 23.2757 100.781 23.3885 100.645C23.5014 100.508 23.643 100.398 23.8033 100.323C23.9636 100.247 24.1385 100.208 24.3157 100.208C24.4928 100.208 24.6678 100.247 24.8281 100.323C24.9884 100.398 25.13 100.508 25.2428 100.645C25.3557 100.781 25.437 100.941 25.481 101.112C25.5249 101.284 25.5305 101.463 25.4971 101.637V122.337ZM30.5236 122.337C30.5236 122.645 30.4014 122.94 30.1839 123.157C29.9663 123.375 29.6713 123.497 29.3637 123.497C29.056 123.497 28.761 123.375 28.5434 123.157C28.3259 122.94 28.2037 122.645 28.2037 122.337V101.637C28.2037 101.329 28.3259 101.035 28.5434 100.817C28.761 100.6 29.056 100.477 29.3637 100.477C29.6713 100.477 29.9663 100.6 30.1839 100.817C30.4014 101.035 30.5236 101.329 30.5236 101.637V122.337ZM35.593 122.337C35.6264 122.511 35.6209 122.69 35.5769 122.862C35.533 123.033 35.4516 123.193 35.3388 123.33C35.2259 123.466 35.0843 123.576 34.924 123.652C34.7637 123.727 34.5888 123.766 34.4116 123.766C34.2345 123.766 34.0595 123.727 33.8992 123.652C33.739 123.576 33.5973 123.466 33.4845 123.33C33.3716 123.193 33.2903 123.033 33.2463 122.862C33.2024 122.69 33.1968 122.511 33.2302 122.337V101.637C33.1968 101.463 33.2024 101.284 33.2463 101.112C33.2903 100.941 33.3716 100.781 33.4845 100.645C33.5973 100.508 33.739 100.398 33.8992 100.323C34.0595 100.247 34.2345 100.208 34.4116 100.208C34.5888 100.208 34.7637 100.247 34.924 100.323C35.0843 100.398 35.2259 100.508 35.3388 100.645C35.4516 100.781 35.533 100.941 35.5769 101.112C35.6209 101.284 35.6264 101.463 35.593 101.637V122.337ZM40.6195 122.337C40.6195 122.645 40.4973 122.94 40.2798 123.157C40.0622 123.375 39.7672 123.497 39.4596 123.497C39.1519 123.497 38.8569 123.375 38.6394 123.157C38.4218 122.94 38.2996 122.645 38.2996 122.337V101.637C38.2996 101.329 38.4218 101.035 38.6394 100.817C38.8569 100.6 39.1519 100.477 39.4596 100.477C39.7672 100.477 40.0622 100.6 40.2798 100.817C40.4973 101.035 40.6195 101.329 40.6195 101.637V122.337ZM45.689 122.337C45.7223 122.511 45.7168 122.69 45.6728 122.862C45.6289 123.033 45.5476 123.193 45.4347 123.33C45.3218 123.466 45.1802 123.576 45.0199 123.652C44.8596 123.727 44.6847 123.766 44.5075 123.766C44.3304 123.766 44.1554 123.727 43.9951 123.652C43.8349 123.576 43.6932 123.466 43.5804 123.33C43.4675 123.193 43.3862 123.033 43.3422 122.862C43.2983 122.69 43.2928 122.511 43.3261 122.337V101.637C43.2928 101.463 43.2983 101.284 43.3422 101.112C43.3862 100.941 43.4675 100.781 43.5804 100.645C43.6932 100.508 43.8349 100.398 43.9951 100.323C44.1554 100.247 44.3304 100.208 44.5075 100.208C44.6847 100.208 44.8596 100.247 45.0199 100.323C45.1802 100.398 45.3218 100.508 45.4347 100.645C45.5476 100.781 45.6289 100.941 45.6728 101.112C45.7168 101.284 45.7223 101.463 45.689 101.637V122.337Z" fill="#FF9F6C"/>
<path d="M41.2641 92.6611L33.9606 88.9248C33.0953 88.4915 32.275 87.9736 31.5118 87.3787L34.0895 0.712241V0.325721C34.0673 -0.557904 33.8704 -1.4284 33.5102 -2.23562C33.1499 -3.04283 32.6334 -3.77081 31.9905 -4.3776C31.3476 -4.98439 30.5909 -5.45801 29.764 -5.77115C28.9372 -6.0843 28.0565 -6.23079 27.1727 -6.20218C26.287 -6.18571 25.4135 -5.99275 24.6034 -5.63459C23.7932 -5.27644 23.0627 -4.76029 22.4546 -4.11638C21.8464 -3.47247 21.3729 -2.71373 21.0618 -1.88461C20.7507 -1.05548 20.6082 -0.172632 20.6426 0.712241L23.1773 87.7223C22.5199 88.1961 21.8143 88.5991 21.0722 88.9248L13.6829 92.6611C12.2448 93.3755 11.0357 94.4784 10.1928 95.8447C9.34996 97.2111 8.90698 98.7863 8.91415 100.392V121.865C8.91415 122.305 9.00083 122.74 9.16923 123.147C9.33764 123.553 9.58447 123.923 9.89564 124.234C10.2068 124.545 10.5762 124.791 10.9828 124.96C11.3893 125.128 11.8251 125.215 12.2651 125.215H42.5529C43.4416 125.215 44.294 124.862 44.9224 124.234C45.5508 123.605 45.9039 122.753 45.9039 121.865V100.392C45.9231 98.7998 45.4994 97.234 44.68 95.8689C43.8607 94.5039 42.6781 93.3933 41.2641 92.6611ZM13.6829 120.877C13.6829 121.185 13.5606 121.48 13.3431 121.697C13.1256 121.915 12.8305 122.037 12.5229 122.037C12.2153 122.037 11.9202 121.915 11.7027 121.697C11.4852 121.48 11.3629 121.185 11.3629 120.877V100.134C11.3629 99.8263 11.4852 99.5314 11.7027 99.3139C11.9202 99.0965 12.2153 98.9743 12.5229 98.9743C12.8305 98.9743 13.1256 99.0965 13.3431 99.3139C13.5606 99.5314 13.6829 99.8263 13.6829 100.134V120.877ZM18.7523 120.877C18.6997 121.152 18.5529 121.4 18.3373 121.578C18.1217 121.756 17.8506 121.853 17.5709 121.853C17.2911 121.853 17.0201 121.756 16.8045 121.578C16.5888 121.4 16.4421 121.152 16.3894 120.877V100.134C16.3561 99.9599 16.3616 99.7808 16.4056 99.6093C16.4495 99.4377 16.5308 99.278 16.6437 99.1415C16.7566 99.005 16.8982 98.8951 17.0585 98.8197C17.2188 98.7442 17.3937 98.7051 17.5709 98.7051C17.748 98.7051 17.923 98.7442 18.0832 98.8197C18.2435 98.8951 18.3852 99.005 18.498 99.1415C18.6109 99.278 18.6922 99.4377 18.7362 99.6093C18.7801 99.7808 18.7856 99.9599 18.7523 100.134V120.877ZM23.7788 120.877C23.7788 121.029 23.7488 121.18 23.6905 121.321C23.6322 121.462 23.5468 121.589 23.439 121.697C23.3313 121.805 23.2034 121.89 23.0627 121.948C22.922 122.007 22.7712 122.037 22.6188 122.037C22.4665 122.037 22.3157 122.007 22.1749 121.948C22.0342 121.89 21.9063 121.805 21.7986 121.697C21.6909 121.589 21.6055 121.462 21.5472 121.321C21.4889 121.18 21.4589 121.029 21.4589 120.877V100.134C21.4589 99.9816 21.4889 99.8308 21.5472 99.6901C21.6055 99.5494 21.6909 99.4216 21.7986 99.3139C21.9063 99.2063 22.0342 99.1208 22.1749 99.0626C22.3157 99.0043 22.4665 98.9743 22.6188 98.9743C22.7712 98.9743 22.922 99.0043 23.0627 99.0626C23.2034 99.1208 23.3313 99.2063 23.439 99.3139C23.5468 99.4216 23.6322 99.5494 23.6905 99.6901C23.7488 99.8308 23.7788 99.9816 23.7788 100.134V120.877ZM28.8482 120.877C28.7956 121.152 28.6488 121.4 28.4332 121.578C28.2176 121.756 27.9466 121.853 27.6668 121.853C27.387 121.853 27.116 121.756 26.9004 121.578C26.6847 121.4 26.538 121.152 26.4853 120.877V100.134C26.452 99.9599 26.4575 99.7808 26.5015 99.6093C26.5454 99.4377 26.6268 99.278 26.7396 99.1415C26.8525 99.005 26.9941 98.8951 27.1544 98.8197C27.3147 98.7442 27.4896 98.7051 27.6668 98.7051C27.8439 98.7051 28.0189 98.7442 28.1792 98.8197C28.3395 98.8951 28.4811 99.005 28.594 99.1415C28.7068 99.278 28.7881 99.4377 28.8321 99.6093C28.8761 99.7808 28.8815 99.9599 28.8482 100.134V120.877ZM33.9177 120.877C33.9065 121.189 33.7749 121.483 33.5505 121.7C33.3261 121.916 33.0265 122.037 32.7148 122.037C32.4071 122.037 32.1121 121.915 31.8945 121.697C31.677 121.48 31.5548 121.185 31.5548 120.877V100.134C31.5546 99.8222 31.6754 99.5227 31.8918 99.2984C32.1082 99.0741 32.4032 98.9425 32.7148 98.9314C33.0304 98.9421 33.3302 99.0722 33.5535 99.2954C33.7768 99.5187 33.907 99.8183 33.9177 100.134V120.877ZM38.9442 120.877C38.8915 121.152 38.7447 121.4 38.5291 121.578C38.3135 121.756 38.0425 121.853 37.7627 121.853C37.4829 121.853 37.2119 121.756 36.9963 121.578C36.7807 121.4 36.6339 121.152 36.5813 120.877V100.134C36.548 99.9599 36.5534 99.7808 36.5974 99.6093C36.6414 99.4377 36.7227 99.278 36.8355 99.1415C36.9484 99.005 37.09 98.8951 37.2503 98.8197C37.4106 98.7442 37.5856 98.7051 37.7627 98.7051C37.9399 98.7051 38.1148 98.7442 38.2751 98.8197C38.4354 98.8951 38.577 99.005 38.6899 99.1415C38.8027 99.278 38.8841 99.4377 38.928 99.6093C38.972 99.7808 38.9775 99.9599 38.9442 100.134V120.877ZM44.0136 120.877C44.0025 121.189 43.8708 121.483 43.6464 121.7C43.422 121.916 43.1224 122.037 42.8107 122.037C42.503 122.037 42.208 121.915 41.9905 121.697C41.7729 121.48 41.6507 121.185 41.6507 120.877V100.134C41.6505 99.8222 41.7713 99.5227 41.9877 99.2984C42.2041 99.0741 42.4991 98.9425 42.8107 98.9314C43.1263 98.9421 43.4261 99.0722 43.6494 99.2954C43.8727 99.5187 44.0029 99.8183 44.0136 100.134V120.877Z" fill="#FF9F6C"/>
<path d="M27.4734 3.41786C28.9445 3.41786 30.137 2.22573 30.137 0.755165C30.137 -0.715402 28.9445 -1.90753 27.4734 -1.90753C26.0024 -1.90753 24.8098 -0.715402 24.8098 0.755165C24.8098 2.22573 26.0024 3.41786 27.4734 3.41786Z" fill="#FF9F6C"/>
<path d="M96.3405 85.6608C95.3827 85.2375 94.5574 84.5628 93.9523 83.7083C93.3472 82.8539 92.9848 81.8516 92.9036 80.8078V76.2555V73.3351L95.0517 0.325708V-0.060812C95.0295 -0.944437 94.8325 -1.81494 94.4723 -2.62215C94.1121 -3.42937 93.5956 -4.15734 92.9526 -4.76414C92.3097 -5.37093 91.553 -5.84454 90.7261 -6.15769C89.8993 -6.47083 89.0186 -6.61732 88.1349 -6.58871C87.2492 -6.57224 86.3757 -6.37928 85.5655 -6.02113C84.7554 -5.66297 84.0248 -5.14683 83.4167 -4.50292C82.8086 -3.859 82.3351 -3.10027 82.024 -2.27114C81.7128 -1.44202 81.5703 -0.559165 81.6048 0.325708L84.0106 81.9245C83.7347 82.7041 83.2975 83.4169 82.7275 84.0163C82.1576 84.6157 81.4675 85.0883 80.7026 85.4031C76.5301 87.18 73.0998 90.3432 70.992 94.3576C68.8842 98.3719 68.2283 102.991 69.1354 107.433C70.0424 111.875 72.4567 115.868 75.9697 118.735C79.4828 121.603 83.8788 123.169 88.4141 123.169C92.9494 123.169 97.3455 121.603 100.858 118.735C104.372 115.868 106.786 111.875 107.693 107.433C108.6 102.991 107.944 98.3719 105.836 94.3576C103.728 90.3432 100.298 87.18 96.1257 85.4031L96.3405 85.6608Z" fill="#FF9F6C"/>
<path d="M88.5645 3.41786C90.0356 3.41786 91.2281 2.22573 91.2281 0.755165C91.2281 -0.715402 90.0356 -1.90753 88.5645 -1.90753C87.0934 -1.90753 85.9009 -0.715402 85.9009 0.755165C85.9009 2.22573 87.0934 3.41786 88.5645 3.41786Z" fill="#FF9F6C"/>
<path d="M163.231 92.6612L155.928 88.9248C155.278 88.6131 154.717 88.1428 154.296 87.5574C153.876 86.972 153.61 86.2903 153.522 85.575L153.823 75.4395V74.3659L156.143 0.712243V0.325723C156.121 -0.557903 155.924 -1.4284 155.563 -2.23562C155.203 -3.04283 154.687 -3.77081 154.044 -4.3776C153.401 -4.98439 152.644 -5.45801 151.817 -5.77115C150.99 -6.0843 150.11 -6.23079 149.226 -6.20218C148.348 -6.2022 147.478 -6.0286 146.668 -5.69139C145.857 -5.35417 145.121 -4.86 144.502 -4.2373C143.883 -3.61461 143.394 -2.8757 143.061 -2.06311C142.729 -1.25051 142.561 -0.380273 142.567 0.497509L145.102 74.1511L145.531 84.5013C145.576 85.3814 145.365 86.2557 144.923 87.0181C144.48 87.7804 143.826 88.398 143.04 88.796L135.736 92.5323C134.298 93.2467 133.089 94.3496 132.246 95.7159C131.403 97.0823 130.96 98.6575 130.967 100.263V121.736C130.967 122.625 131.32 123.477 131.949 124.105C132.577 124.733 133.43 125.086 134.318 125.086H164.391C164.835 125.092 165.275 125.009 165.687 124.843C166.098 124.678 166.473 124.432 166.789 124.12C167.104 123.808 167.355 123.437 167.526 123.028C167.697 122.619 167.785 122.18 167.785 121.736V100.263C167.789 98.7016 167.367 97.169 166.564 95.8296C165.762 94.4903 164.61 93.3949 163.231 92.6612Z" fill="#FF9F6C"/>
<path d="M149.613 3.41786C151.084 3.41786 152.276 2.22573 152.276 0.755165C152.276 -0.715402 151.084 -1.90753 149.613 -1.90753C148.142 -1.90753 146.949 -0.715402 146.949 0.755165C146.949 2.22573 148.142 3.41786 149.613 3.41786Z" fill="#FF9F6C"/>
</g>
<path d="M729 49.5C733.142 49.5 736.5 52.8579 736.5 57V452.5H63.5V57C63.5 52.8579 66.8579 49.5 71 49.5H729Z" fill="#FFE9DD" stroke="#DA5107" stroke-width="5"/>
<rect x="739" y="357" width="91.3531" height="58.3394" rx="2.5" fill="#FF9F6C"/>
<rect x="744.879" y="366.045" width="59.2439" height="39.7974" rx="2.5" fill="#FF7E3B"/>
<rect x="747.14" y="368.305" width="54.7214" height="35.7272" rx="2.5" fill="#FFC2A2"/>
<rect x="750.306" y="415.339" width="16.2808" height="3.1657" fill="#DA5107"/>
<path fill-rule="evenodd" clip-rule="evenodd" d="M1.24908 367.008C-3.84367 366.883 -8.85787 368.28 -13.1531 371.019C-17.4484 373.758 -20.8298 377.716 -22.8654 382.386C-24.901 387.056 -25.4984 392.226 -24.5814 397.238C-23.6644 402.249 -21.2746 406.873 -17.7172 410.52C-14.1597 414.166 -9.59613 416.669 -4.60925 417.71C0.377636 418.75 5.56146 418.281 10.2802 416.361C14.9989 414.441 19.0383 411.158 21.8825 406.932C24.7267 402.705 26.2467 397.727 26.2482 392.633C26.3287 385.92 23.7407 379.45 19.0529 374.645C14.3652 369.84 7.96138 367.093 1.24908 367.008Z" fill="#FF9F6C"/>
<path fill-rule="evenodd" clip-rule="evenodd" d="M1.35755 377.006C-1.68827 376.922 -4.68981 377.749 -7.26304 379.381C-9.83626 381.013 -11.8641 383.375 -13.0872 386.166C-14.3103 388.957 -14.673 392.049 -14.1288 395.047C-13.5847 398.045 -12.1585 400.813 -10.0326 402.996C-7.90681 405.179 -5.17807 406.678 -2.19554 407.301C0.786992 407.925 3.88768 407.644 6.7098 406.495C9.53192 405.346 11.9471 403.381 13.6464 400.852C15.3457 398.323 16.2518 395.344 16.2488 392.297C16.2993 388.295 14.7594 384.437 11.9673 381.57C9.17516 378.703 5.35917 377.061 1.35755 377.006Z" fill="#FF7E3B"/>
<path fill-rule="evenodd" clip-rule="evenodd" d="M26.9963 382.63C23.4562 382.544 19.9708 383.515 16.985 385.419C13.9993 387.323 11.6488 390.074 10.2338 393.32C8.81884 396.566 8.40353 400.16 9.04096 403.644C9.67838 407.127 11.3396 410.342 13.8125 412.876C16.2853 415.411 19.4576 417.151 22.9241 417.875C26.3906 418.598 29.9939 418.271 33.274 416.937C36.5541 415.602 39.362 413.32 41.3391 410.383C43.3161 407.445 44.3727 403.984 44.3737 400.443C44.4297 395.777 42.6307 391.279 39.3722 387.939C36.1136 384.599 31.6622 382.69 26.9963 382.63Z" fill="#FF9F6C"/>
<path fill-rule="evenodd" clip-rule="evenodd" d="M27.1665 389.504C25.053 389.446 22.9703 390.02 21.1848 391.152C19.3993 392.284 17.9922 393.924 17.1436 395.86C16.2949 397.797 16.0432 399.942 16.4208 402.022C16.7984 404.103 17.788 406.023 19.2631 407.538C20.7381 409.053 22.6315 410.093 24.7011 410.525C26.7706 410.958 28.9221 410.763 30.8803 409.966C32.8385 409.169 34.5143 407.806 35.6934 406.051C36.8725 404.296 37.5013 402.229 37.4992 400.114C37.5342 397.338 36.4657 394.66 34.5283 392.671C32.5909 390.682 29.9431 389.542 27.1665 389.504Z" fill="#FF7E3B"/>
</g>
</g>
<defs>
<clipPath id="clip0_1183_4241">
<rect width="800" height="450" fill="white"/>
</clipPath>
<clipPath id="clip1_1183_4241">
<rect width="800" height="450" fill="white"/>
</clipPath>
<clipPath id="clip2_1183_4241">
<rect width="1070.62" height="108.125" fill="white" transform="translate(-44.6875 166.875)"/>
</clipPath>
<clipPath id="clip3_1183_4241">
<rect width="159" height="137" fill="white" transform="translate(9 -12)"/>
</clipPath>
</defs>
</svg>
