<svg width="200" height="58" viewBox="0 0 200 58" fill="none" xmlns="http://www.w3.org/2000/svg">
<rect x="0.75" y="0.75" width="198.5" height="56.5" rx="28.25" fill="#FFBA07"/>
<rect x="0.75" y="0.75" width="198.5" height="56.5" rx="28.25" stroke="#2B2B2B" stroke-width="1.5"/>
<path d="M55.928 34V22.8H57.928V34H55.928ZM59.1828 26.96L59.3588 26.112C59.4548 26.128 59.5188 26.128 59.6148 26.128C60.2228 26.128 60.6868 25.76 60.8468 25.088C60.7508 25.12 60.6388 25.136 60.5268 25.136C59.7908 25.136 59.2467 24.592 59.2467 23.888C59.2467 23.216 59.7908 22.656 60.5268 22.656C61.3428 22.656 61.8548 23.28 61.8548 24.176C61.8548 25.744 60.9908 26.992 59.5988 26.992C59.4708 26.992 59.3268 26.976 59.1828 26.96ZM62.9258 34V26.224H64.8458V27.056C65.2618 26.384 65.9018 25.968 66.7338 25.968C67.7578 25.968 68.4778 26.416 68.8138 27.296C69.2298 26.48 69.9498 25.968 70.9418 25.968C72.4138 25.968 73.2458 26.848 73.2458 28.624L73.2778 34H71.3418V29.088C71.3418 28.144 70.9898 27.76 70.3018 27.76C69.5338 27.76 69.0378 28.352 69.0378 29.664L69.0698 34H67.1978V29.088C67.1978 28.144 66.8298 27.76 66.1258 27.76C65.3578 27.76 64.8458 28.352 64.8458 29.632V34H62.9258ZM78.5143 31.92C78.5143 30.352 79.5543 29.568 81.4903 29.232L83.1383 28.944V28.704C83.1383 28.128 82.6743 27.648 81.7783 27.648C80.8183 27.648 80.3063 28.24 80.3703 29.136L78.5303 28.992C78.4342 27.008 79.9703 25.984 81.7303 25.984C83.8903 25.984 85.0103 27.12 85.0103 28.784V34H83.1543V33.168C82.8503 33.696 82.1783 34.24 81.1543 34.24C79.3623 34.24 78.5143 33.024 78.5143 31.92ZM80.4023 31.664C80.4023 32.144 80.8503 32.464 81.5383 32.464C82.4663 32.464 83.1383 31.792 83.1383 30.752V30.464L81.7623 30.704C81.0423 30.832 80.4023 31.056 80.4023 31.664ZM90.4726 34V22.8H92.4566V27.008C93.0166 26.368 93.8166 25.968 94.9046 25.968C97.0006 25.968 98.5046 27.808 98.5046 30.112C98.5046 32.432 97.0006 34.24 94.9046 34.24C93.8166 34.24 93.0166 33.84 92.4566 33.2V34H90.4726ZM92.4566 30.112C92.4566 31.376 93.2886 32.288 94.4726 32.288C95.6886 32.288 96.5046 31.376 96.5046 30.112C96.5046 28.848 95.6726 27.904 94.4726 27.904C93.2886 27.904 92.4566 28.848 92.4566 30.112ZM106.761 26.224V34H104.761V33.264C104.233 33.872 103.481 34.256 102.489 34.256C100.777 34.256 99.7848 33.072 99.7848 31.2V26.224H101.785V30.832C101.785 31.904 102.233 32.464 103.145 32.464C104.121 32.464 104.761 31.712 104.761 30.448V26.224H106.761ZM107.834 27.952V26.224H109.114V23.984H111.114V26.224H114.81V27.952H111.114V31.312C111.114 32.048 111.53 32.432 112.186 32.432C112.874 32.432 113.306 31.904 113.226 30.928L115.13 31.12C115.226 33.04 113.946 34.24 112.266 34.24C110.282 34.24 109.114 33.088 109.114 31.232V27.952H107.834ZM115.396 27.952V26.224H116.676V23.984H118.676V26.224H122.372V27.952H118.676V31.312C118.676 32.048 119.092 32.432 119.748 32.432C120.436 32.432 120.868 31.904 120.788 30.928L122.692 31.12C122.788 33.04 121.508 34.24 119.828 34.24C117.844 34.24 116.676 33.088 116.676 31.232V27.952H115.396ZM123.37 30.128C123.37 27.808 125.018 25.984 127.434 25.984C129.85 25.984 131.482 27.808 131.482 30.128C131.482 32.448 129.85 34.24 127.434 34.24C125.018 34.24 123.37 32.448 123.37 30.128ZM125.37 30.128C125.37 31.392 126.234 32.32 127.434 32.32C128.618 32.32 129.482 31.392 129.482 30.128C129.482 28.864 128.618 27.904 127.434 27.904C126.234 27.904 125.37 28.864 125.37 30.128ZM132.785 34V26.224H134.785V26.96C135.313 26.352 136.065 25.968 137.057 25.968C138.769 25.968 139.761 27.152 139.761 29.024V34H137.761V29.392C137.761 28.32 137.313 27.76 136.401 27.76C135.425 27.76 134.785 28.512 134.785 29.776V34H132.785ZM141.666 30.512V22.8H143.666V30.512H141.666ZM141.41 32.848C141.41 32.176 141.97 31.616 142.69 31.616C143.362 31.616 143.906 32.176 143.906 32.848C143.906 33.568 143.362 34.128 142.69 34.128C141.97 34.128 141.41 33.568 141.41 32.848Z" fill="#2B2B2B"/>
</svg>
