<svg width="200" height="56" viewBox="0 0 200 56" fill="none" xmlns="http://www.w3.org/2000/svg">
<rect x="0.75" y="0.75" width="198.5" height="54.5" rx="27.25" stroke="#2B2B2B" stroke-width="1.5"/>
<path d="M54.424 34H52.296V22.576H54.424V34ZM58.2948 24.32H57.1748V22.224H59.5588V24.496C59.5588 25.2853 59.3188 25.904 58.8388 26.352C58.3588 26.7893 57.6921 27.008 56.8388 27.008V25.904C57.3401 25.904 57.7081 25.792 57.9428 25.568C58.1774 25.344 58.2948 24.992 58.2948 24.512V24.32ZM66.26 25.68C66.8787 25.68 67.396 25.8133 67.812 26.08C68.228 26.336 68.548 26.7307 68.772 27.264C69.028 26.7733 69.396 26.3893 69.876 26.112C70.3667 25.824 70.9107 25.68 71.508 25.68C72.4253 25.68 73.1293 25.952 73.62 26.496C74.1213 27.0293 74.372 27.792 74.372 28.784V34H72.308V29.232C72.308 28.5813 72.1853 28.096 71.94 27.776C71.6947 27.456 71.3213 27.296 70.82 27.296C70.276 27.296 69.8493 27.4933 69.54 27.888C69.2307 28.2827 69.076 28.8427 69.076 29.568V34H67.028V29.232C67.028 28.5813 66.9053 28.096 66.66 27.776C66.4147 27.456 66.0413 27.296 65.54 27.296C64.9853 27.296 64.5533 27.4933 64.244 27.888C63.9453 28.2827 63.796 28.8427 63.796 29.568V34H61.748V25.872H63.764V27.248C63.956 26.768 64.276 26.3893 64.724 26.112C65.172 25.824 65.684 25.68 66.26 25.68ZM87.0666 34H85.0986C85.0666 33.7867 85.04 33.5733 85.0186 33.36C84.9973 33.1467 84.9866 32.9333 84.9866 32.72C84.7946 33.1787 84.4586 33.536 83.9786 33.792C83.5093 34.048 82.944 34.176 82.2826 34.176C81.4613 34.176 80.8 33.9627 80.2986 33.536C79.7973 33.1093 79.5466 32.5387 79.5466 31.824C79.5466 31.1093 79.792 30.544 80.2826 30.128C80.7733 29.712 81.504 29.4453 82.4746 29.328L84.9066 29.056V28.672C84.9066 28.2027 84.7733 27.84 84.5066 27.584C84.24 27.328 83.8613 27.2 83.3706 27.2C82.9333 27.2 82.5813 27.312 82.3146 27.536C82.048 27.76 81.8986 28.064 81.8666 28.448H79.8986C79.984 27.584 80.3413 26.9067 80.9706 26.416C81.6 25.9253 82.4213 25.68 83.4346 25.68C84.5653 25.68 85.424 25.9467 86.0106 26.48C86.608 27.0133 86.9066 27.7973 86.9066 28.832V31.968C86.9066 32.4053 86.9173 32.784 86.9386 33.104C86.9706 33.4133 87.0133 33.712 87.0666 34ZM81.5786 31.712C81.5786 32.0427 81.6906 32.2987 81.9146 32.48C82.1386 32.6613 82.448 32.752 82.8426 32.752C83.44 32.752 83.9306 32.5813 84.3146 32.24C84.7093 31.888 84.9066 31.424 84.9066 30.848V30.352L83.0986 30.56C82.5226 30.6347 82.1226 30.7627 81.8986 30.944C81.6853 31.1147 81.5786 31.3707 81.5786 31.712ZM97.3095 34.192C96.7335 34.192 96.2055 34.0587 95.7255 33.792C95.2562 33.5147 94.9148 33.152 94.7015 32.704V34H92.6855V22.224H94.7335V27.2C94.9468 26.7413 95.2828 26.3733 95.7415 26.096C96.2108 25.8187 96.7335 25.68 97.3095 25.68C98.3762 25.68 99.2402 26.0747 99.9015 26.864C100.563 27.6533 100.894 28.6773 100.894 29.936C100.894 31.1947 100.563 32.2187 99.9015 33.008C99.2402 33.7973 98.3762 34.192 97.3095 34.192ZM96.7335 27.184C96.0935 27.184 95.5922 27.4187 95.2295 27.888C94.8668 28.3467 94.6855 28.9813 94.6855 29.792V30.08C94.6855 30.8907 94.8668 31.5307 95.2295 32C95.5922 32.4587 96.0935 32.688 96.7335 32.688C97.3842 32.688 97.8962 32.4427 98.2695 31.952C98.6428 31.4613 98.8295 30.7893 98.8295 29.936C98.8295 29.0827 98.6428 28.4107 98.2695 27.92C97.8962 27.4293 97.3842 27.184 96.7335 27.184ZM110.186 25.872V34H108.17V32.64C107.967 33.12 107.642 33.4987 107.194 33.776C106.746 34.0533 106.229 34.192 105.642 34.192C104.725 34.192 104.01 33.9253 103.498 33.392C102.997 32.848 102.746 32.0853 102.746 31.104V25.872H104.81V30.656C104.81 31.3067 104.938 31.7973 105.194 32.128C105.461 32.448 105.855 32.608 106.378 32.608C106.933 32.608 107.359 32.4107 107.658 32.016C107.967 31.6107 108.122 31.0347 108.122 30.288V25.872H110.186ZM115.918 32.48C116.099 32.48 116.275 32.4693 116.446 32.448C116.616 32.416 116.798 32.3733 116.99 32.32V33.888C116.712 33.9733 116.446 34.032 116.19 34.064C115.934 34.1067 115.662 34.128 115.374 34.128C114.51 34.128 113.87 33.936 113.454 33.552C113.048 33.168 112.846 32.576 112.846 31.776V27.344H111.726V25.872H112.846V23.84H114.878V25.872H116.814V27.344H114.862V31.456C114.862 31.808 114.942 32.0693 115.102 32.24C115.272 32.4 115.544 32.48 115.918 32.48ZM122.136 32.48C122.318 32.48 122.494 32.4693 122.664 32.448C122.835 32.416 123.016 32.3733 123.208 32.32V33.888C122.931 33.9733 122.664 34.032 122.408 34.064C122.152 34.1067 121.88 34.128 121.592 34.128C120.728 34.128 120.088 33.936 119.672 33.552C119.267 33.168 119.064 32.576 119.064 31.776V27.344H117.944V25.872H119.064V23.84H121.096V25.872H123.032V27.344H121.08V31.456C121.08 31.808 121.16 32.0693 121.32 32.24C121.491 32.4 121.763 32.48 122.136 32.48ZM128.675 25.68C129.902 25.68 130.894 26.0693 131.651 26.848C132.408 27.6267 132.787 28.656 132.787 29.936C132.787 31.2267 132.408 32.2613 131.651 33.04C130.904 33.808 129.912 34.192 128.675 34.192C127.438 34.192 126.44 33.808 125.683 33.04C124.936 32.2613 124.563 31.2267 124.563 29.936C124.563 28.656 124.942 27.6267 125.699 26.848C126.456 26.0693 127.448 25.68 128.675 25.68ZM128.675 27.2C128.024 27.2 127.518 27.44 127.155 27.92C126.792 28.4 126.611 29.072 126.611 29.936C126.611 30.8 126.792 31.472 127.155 31.952C127.518 32.432 128.024 32.672 128.675 32.672C129.326 32.672 129.832 32.432 130.195 31.952C130.558 31.472 130.739 30.8 130.739 29.936C130.739 29.0827 130.558 28.416 130.195 27.936C129.832 27.4453 129.326 27.2 128.675 27.2ZM134.717 25.872H136.733V27.248C136.935 26.768 137.261 26.3893 137.709 26.112C138.167 25.824 138.695 25.68 139.293 25.68C140.221 25.68 140.946 25.9573 141.469 26.512C142.002 27.056 142.269 27.8133 142.269 28.784V34H140.221V29.264C140.221 28.6133 140.082 28.1227 139.805 27.792C139.527 27.4613 139.122 27.296 138.589 27.296C138.013 27.296 137.565 27.4933 137.245 27.888C136.925 28.2827 136.765 28.848 136.765 29.584V34H134.717V25.872ZM145.214 30.256L144.862 22.576H147.23L146.878 30.256H145.214ZM147.23 34H144.846V31.68H147.23V34Z" fill="#2B2B2B"/>
</svg>
