<svg width="200" height="64" viewBox="0 0 200 64" fill="none" xmlns="http://www.w3.org/2000/svg">
<rect x="0.75" y="0.75" width="198.5" height="62.5" rx="31.25" fill="#FFBA07"/>
<rect x="0.75" y="0.75" width="198.5" height="62.5" rx="31.25" stroke="#2B2B2B" stroke-width="1.5"/>
<path d="M54.424 38H52.296V26.576H54.424V38ZM58.2948 28.32H57.1748V26.224H59.5588V28.496C59.5588 29.2853 59.3188 29.904 58.8388 30.352C58.3588 30.7893 57.6921 31.008 56.8388 31.008V29.904C57.3401 29.904 57.7081 29.792 57.9428 29.568C58.1774 29.344 58.2948 28.992 58.2948 28.512V28.32ZM66.26 29.68C66.8787 29.68 67.396 29.8133 67.812 30.08C68.228 30.336 68.548 30.7307 68.772 31.264C69.028 30.7733 69.396 30.3893 69.876 30.112C70.3667 29.824 70.9107 29.68 71.508 29.68C72.4253 29.68 73.1293 29.952 73.62 30.496C74.1213 31.0293 74.372 31.792 74.372 32.784V38H72.308V33.232C72.308 32.5813 72.1853 32.096 71.94 31.776C71.6947 31.456 71.3213 31.296 70.82 31.296C70.276 31.296 69.8493 31.4933 69.54 31.888C69.2307 32.2827 69.076 32.8427 69.076 33.568V38H67.028V33.232C67.028 32.5813 66.9053 32.096 66.66 31.776C66.4147 31.456 66.0413 31.296 65.54 31.296C64.9853 31.296 64.5533 31.4933 64.244 31.888C63.9453 32.2827 63.796 32.8427 63.796 33.568V38H61.748V29.872H63.764V31.248C63.956 30.768 64.276 30.3893 64.724 30.112C65.172 29.824 65.684 29.68 66.26 29.68ZM87.0666 38H85.0986C85.0666 37.7867 85.04 37.5733 85.0186 37.36C84.9973 37.1467 84.9866 36.9333 84.9866 36.72C84.7946 37.1787 84.4586 37.536 83.9786 37.792C83.5093 38.048 82.944 38.176 82.2826 38.176C81.4613 38.176 80.8 37.9627 80.2986 37.536C79.7973 37.1093 79.5466 36.5387 79.5466 35.824C79.5466 35.1093 79.792 34.544 80.2826 34.128C80.7733 33.712 81.504 33.4453 82.4746 33.328L84.9066 33.056V32.672C84.9066 32.2027 84.7733 31.84 84.5066 31.584C84.24 31.328 83.8613 31.2 83.3706 31.2C82.9333 31.2 82.5813 31.312 82.3146 31.536C82.048 31.76 81.8986 32.064 81.8666 32.448H79.8986C79.984 31.584 80.3413 30.9067 80.9706 30.416C81.6 29.9253 82.4213 29.68 83.4346 29.68C84.5653 29.68 85.424 29.9467 86.0106 30.48C86.608 31.0133 86.9066 31.7973 86.9066 32.832V35.968C86.9066 36.4053 86.9173 36.784 86.9386 37.104C86.9706 37.4133 87.0133 37.712 87.0666 38ZM81.5786 35.712C81.5786 36.0427 81.6906 36.2987 81.9146 36.48C82.1386 36.6613 82.448 36.752 82.8426 36.752C83.44 36.752 83.9306 36.5813 84.3146 36.24C84.7093 35.888 84.9066 35.424 84.9066 34.848V34.352L83.0986 34.56C82.5226 34.6347 82.1226 34.7627 81.8986 34.944C81.6853 35.1147 81.5786 35.3707 81.5786 35.712ZM97.3095 38.192C96.7335 38.192 96.2055 38.0587 95.7255 37.792C95.2562 37.5147 94.9148 37.152 94.7015 36.704V38H92.6855V26.224H94.7335V31.2C94.9468 30.7413 95.2828 30.3733 95.7415 30.096C96.2108 29.8187 96.7335 29.68 97.3095 29.68C98.3762 29.68 99.2402 30.0747 99.9015 30.864C100.563 31.6533 100.894 32.6773 100.894 33.936C100.894 35.1947 100.563 36.2187 99.9015 37.008C99.2402 37.7973 98.3762 38.192 97.3095 38.192ZM96.7335 31.184C96.0935 31.184 95.5922 31.4187 95.2295 31.888C94.8668 32.3467 94.6855 32.9813 94.6855 33.792V34.08C94.6855 34.8907 94.8668 35.5307 95.2295 36C95.5922 36.4587 96.0935 36.688 96.7335 36.688C97.3842 36.688 97.8962 36.4427 98.2695 35.952C98.6428 35.4613 98.8295 34.7893 98.8295 33.936C98.8295 33.0827 98.6428 32.4107 98.2695 31.92C97.8962 31.4293 97.3842 31.184 96.7335 31.184ZM110.186 29.872V38H108.17V36.64C107.967 37.12 107.642 37.4987 107.194 37.776C106.746 38.0533 106.229 38.192 105.642 38.192C104.725 38.192 104.01 37.9253 103.498 37.392C102.997 36.848 102.746 36.0853 102.746 35.104V29.872H104.81V34.656C104.81 35.3067 104.938 35.7973 105.194 36.128C105.461 36.448 105.855 36.608 106.378 36.608C106.933 36.608 107.359 36.4107 107.658 36.016C107.967 35.6107 108.122 35.0347 108.122 34.288V29.872H110.186ZM115.918 36.48C116.099 36.48 116.275 36.4693 116.446 36.448C116.616 36.416 116.798 36.3733 116.99 36.32V37.888C116.712 37.9733 116.446 38.032 116.19 38.064C115.934 38.1067 115.662 38.128 115.374 38.128C114.51 38.128 113.87 37.936 113.454 37.552C113.048 37.168 112.846 36.576 112.846 35.776V31.344H111.726V29.872H112.846V27.84H114.878V29.872H116.814V31.344H114.862V35.456C114.862 35.808 114.942 36.0693 115.102 36.24C115.272 36.4 115.544 36.48 115.918 36.48ZM122.136 36.48C122.318 36.48 122.494 36.4693 122.664 36.448C122.835 36.416 123.016 36.3733 123.208 36.32V37.888C122.931 37.9733 122.664 38.032 122.408 38.064C122.152 38.1067 121.88 38.128 121.592 38.128C120.728 38.128 120.088 37.936 119.672 37.552C119.267 37.168 119.064 36.576 119.064 35.776V31.344H117.944V29.872H119.064V27.84H121.096V29.872H123.032V31.344H121.08V35.456C121.08 35.808 121.16 36.0693 121.32 36.24C121.491 36.4 121.763 36.48 122.136 36.48ZM128.675 29.68C129.902 29.68 130.894 30.0693 131.651 30.848C132.408 31.6267 132.787 32.656 132.787 33.936C132.787 35.2267 132.408 36.2613 131.651 37.04C130.904 37.808 129.912 38.192 128.675 38.192C127.438 38.192 126.44 37.808 125.683 37.04C124.936 36.2613 124.563 35.2267 124.563 33.936C124.563 32.656 124.942 31.6267 125.699 30.848C126.456 30.0693 127.448 29.68 128.675 29.68ZM128.675 31.2C128.024 31.2 127.518 31.44 127.155 31.92C126.792 32.4 126.611 33.072 126.611 33.936C126.611 34.8 126.792 35.472 127.155 35.952C127.518 36.432 128.024 36.672 128.675 36.672C129.326 36.672 129.832 36.432 130.195 35.952C130.558 35.472 130.739 34.8 130.739 33.936C130.739 33.0827 130.558 32.416 130.195 31.936C129.832 31.4453 129.326 31.2 128.675 31.2ZM134.717 29.872H136.733V31.248C136.935 30.768 137.261 30.3893 137.709 30.112C138.167 29.824 138.695 29.68 139.293 29.68C140.221 29.68 140.946 29.9573 141.469 30.512C142.002 31.056 142.269 31.8133 142.269 32.784V38H140.221V33.264C140.221 32.6133 140.082 32.1227 139.805 31.792C139.527 31.4613 139.122 31.296 138.589 31.296C138.013 31.296 137.565 31.4933 137.245 31.888C136.925 32.2827 136.765 32.848 136.765 33.584V38H134.717V29.872ZM145.214 34.256L144.862 26.576H147.23L146.878 34.256H145.214ZM147.23 38H144.846V35.68H147.23V38Z" fill="#2B2B2B"/>
</svg>
