<svg width="200" height="48" viewBox="0 0 200 48" fill="none" xmlns="http://www.w3.org/2000/svg">
<rect width="200" height="48" rx="24" fill="#2B2B2B"/>
<path d="M54.424 30H52.296V18.576H54.424V30ZM58.2948 20.32H57.1748V18.224H59.5588V20.496C59.5588 21.2853 59.3188 21.904 58.8388 22.352C58.3588 22.7893 57.6921 23.008 56.8388 23.008V21.904C57.3401 21.904 57.7081 21.792 57.9428 21.568C58.1774 21.344 58.2948 20.992 58.2948 20.512V20.32ZM66.26 21.68C66.8787 21.68 67.396 21.8133 67.812 22.08C68.228 22.336 68.548 22.7307 68.772 23.264C69.028 22.7733 69.396 22.3893 69.876 22.112C70.3667 21.824 70.9107 21.68 71.508 21.68C72.4253 21.68 73.1293 21.952 73.62 22.496C74.1213 23.0293 74.372 23.792 74.372 24.784V30H72.308V25.232C72.308 24.5813 72.1853 24.096 71.94 23.776C71.6947 23.456 71.3213 23.296 70.82 23.296C70.276 23.296 69.8493 23.4933 69.54 23.888C69.2307 24.2827 69.076 24.8427 69.076 25.568V30H67.028V25.232C67.028 24.5813 66.9053 24.096 66.66 23.776C66.4147 23.456 66.0413 23.296 65.54 23.296C64.9853 23.296 64.5533 23.4933 64.244 23.888C63.9453 24.2827 63.796 24.8427 63.796 25.568V30H61.748V21.872H63.764V23.248C63.956 22.768 64.276 22.3893 64.724 22.112C65.172 21.824 65.684 21.68 66.26 21.68ZM87.0666 30H85.0986C85.0666 29.7867 85.04 29.5733 85.0186 29.36C84.9973 29.1467 84.9866 28.9333 84.9866 28.72C84.7946 29.1787 84.4586 29.536 83.9786 29.792C83.5093 30.048 82.944 30.176 82.2826 30.176C81.4613 30.176 80.8 29.9627 80.2986 29.536C79.7973 29.1093 79.5466 28.5387 79.5466 27.824C79.5466 27.1093 79.792 26.544 80.2826 26.128C80.7733 25.712 81.504 25.4453 82.4746 25.328L84.9066 25.056V24.672C84.9066 24.2027 84.7733 23.84 84.5066 23.584C84.24 23.328 83.8613 23.2 83.3706 23.2C82.9333 23.2 82.5813 23.312 82.3146 23.536C82.048 23.76 81.8986 24.064 81.8666 24.448H79.8986C79.984 23.584 80.3413 22.9067 80.9706 22.416C81.6 21.9253 82.4213 21.68 83.4346 21.68C84.5653 21.68 85.424 21.9467 86.0106 22.48C86.608 23.0133 86.9066 23.7973 86.9066 24.832V27.968C86.9066 28.4053 86.9173 28.784 86.9386 29.104C86.9706 29.4133 87.0133 29.712 87.0666 30ZM81.5786 27.712C81.5786 28.0427 81.6906 28.2987 81.9146 28.48C82.1386 28.6613 82.448 28.752 82.8426 28.752C83.44 28.752 83.9306 28.5813 84.3146 28.24C84.7093 27.888 84.9066 27.424 84.9066 26.848V26.352L83.0986 26.56C82.5226 26.6347 82.1226 26.7627 81.8986 26.944C81.6853 27.1147 81.5786 27.3707 81.5786 27.712ZM97.3095 30.192C96.7335 30.192 96.2055 30.0587 95.7255 29.792C95.2562 29.5147 94.9148 29.152 94.7015 28.704V30H92.6855V18.224H94.7335V23.2C94.9468 22.7413 95.2828 22.3733 95.7415 22.096C96.2108 21.8187 96.7335 21.68 97.3095 21.68C98.3762 21.68 99.2402 22.0747 99.9015 22.864C100.563 23.6533 100.894 24.6773 100.894 25.936C100.894 27.1947 100.563 28.2187 99.9015 29.008C99.2402 29.7973 98.3762 30.192 97.3095 30.192ZM96.7335 23.184C96.0935 23.184 95.5922 23.4187 95.2295 23.888C94.8668 24.3467 94.6855 24.9813 94.6855 25.792V26.08C94.6855 26.8907 94.8668 27.5307 95.2295 28C95.5922 28.4587 96.0935 28.688 96.7335 28.688C97.3842 28.688 97.8962 28.4427 98.2695 27.952C98.6428 27.4613 98.8295 26.7893 98.8295 25.936C98.8295 25.0827 98.6428 24.4107 98.2695 23.92C97.8962 23.4293 97.3842 23.184 96.7335 23.184ZM110.186 21.872V30H108.17V28.64C107.967 29.12 107.642 29.4987 107.194 29.776C106.746 30.0533 106.229 30.192 105.642 30.192C104.725 30.192 104.01 29.9253 103.498 29.392C102.997 28.848 102.746 28.0853 102.746 27.104V21.872H104.81V26.656C104.81 27.3067 104.938 27.7973 105.194 28.128C105.461 28.448 105.855 28.608 106.378 28.608C106.933 28.608 107.359 28.4107 107.658 28.016C107.967 27.6107 108.122 27.0347 108.122 26.288V21.872H110.186ZM115.918 28.48C116.099 28.48 116.275 28.4693 116.446 28.448C116.616 28.416 116.798 28.3733 116.99 28.32V29.888C116.712 29.9733 116.446 30.032 116.19 30.064C115.934 30.1067 115.662 30.128 115.374 30.128C114.51 30.128 113.87 29.936 113.454 29.552C113.048 29.168 112.846 28.576 112.846 27.776V23.344H111.726V21.872H112.846V19.84H114.878V21.872H116.814V23.344H114.862V27.456C114.862 27.808 114.942 28.0693 115.102 28.24C115.272 28.4 115.544 28.48 115.918 28.48ZM122.136 28.48C122.318 28.48 122.494 28.4693 122.664 28.448C122.835 28.416 123.016 28.3733 123.208 28.32V29.888C122.931 29.9733 122.664 30.032 122.408 30.064C122.152 30.1067 121.88 30.128 121.592 30.128C120.728 30.128 120.088 29.936 119.672 29.552C119.267 29.168 119.064 28.576 119.064 27.776V23.344H117.944V21.872H119.064V19.84H121.096V21.872H123.032V23.344H121.08V27.456C121.08 27.808 121.16 28.0693 121.32 28.24C121.491 28.4 121.763 28.48 122.136 28.48ZM128.675 21.68C129.902 21.68 130.894 22.0693 131.651 22.848C132.408 23.6267 132.787 24.656 132.787 25.936C132.787 27.2267 132.408 28.2613 131.651 29.04C130.904 29.808 129.912 30.192 128.675 30.192C127.438 30.192 126.44 29.808 125.683 29.04C124.936 28.2613 124.563 27.2267 124.563 25.936C124.563 24.656 124.942 23.6267 125.699 22.848C126.456 22.0693 127.448 21.68 128.675 21.68ZM128.675 23.2C128.024 23.2 127.518 23.44 127.155 23.92C126.792 24.4 126.611 25.072 126.611 25.936C126.611 26.8 126.792 27.472 127.155 27.952C127.518 28.432 128.024 28.672 128.675 28.672C129.326 28.672 129.832 28.432 130.195 27.952C130.558 27.472 130.739 26.8 130.739 25.936C130.739 25.0827 130.558 24.416 130.195 23.936C129.832 23.4453 129.326 23.2 128.675 23.2ZM134.717 21.872H136.733V23.248C136.935 22.768 137.261 22.3893 137.709 22.112C138.167 21.824 138.695 21.68 139.293 21.68C140.221 21.68 140.946 21.9573 141.469 22.512C142.002 23.056 142.269 23.8133 142.269 24.784V30H140.221V25.264C140.221 24.6133 140.082 24.1227 139.805 23.792C139.527 23.4613 139.122 23.296 138.589 23.296C138.013 23.296 137.565 23.4933 137.245 23.888C136.925 24.2827 136.765 24.848 136.765 25.584V30H134.717V21.872ZM145.214 26.256L144.862 18.576H147.23L146.878 26.256H145.214ZM147.23 30H144.846V27.68H147.23V30Z" fill="white"/>
</svg>
