<svg width="327" height="44" viewBox="0 0 327 44" fill="none" xmlns="http://www.w3.org/2000/svg">
<rect x="0.5" y="0.5" width="326" height="43" rx="7.5" stroke="#B3B3B3"/>
<path d="M25.008 28H17.488V16.576H18.864V26.848H25.008V28ZM33.6175 28H32.2895C32.2468 27.7867 32.2095 27.5627 32.1775 27.328C32.1562 27.0827 32.1455 26.8533 32.1455 26.64C31.9748 27.1093 31.6335 27.4827 31.1215 27.76C30.6202 28.0373 30.0282 28.176 29.3455 28.176C28.5775 28.176 27.9482 27.968 27.4575 27.552C26.9775 27.1253 26.7375 26.5653 26.7375 25.872C26.7375 25.1787 26.9668 24.6293 27.4255 24.224C27.8948 23.8187 28.5935 23.5627 29.5215 23.456L32.1135 23.12V22.656C32.1135 22.0693 31.9482 21.6213 31.6175 21.312C31.2975 20.992 30.8335 20.832 30.2255 20.832C29.6922 20.832 29.2655 20.9653 28.9455 21.232C28.6255 21.488 28.4388 21.8507 28.3855 22.32H27.1055C27.1802 21.5307 27.5002 20.9067 28.0655 20.448C28.6415 19.9893 29.3722 19.76 30.2575 19.76C31.2815 19.76 32.0655 20.0053 32.6095 20.496C33.1535 20.9867 33.4255 21.696 33.4255 22.624V26.32C33.4255 26.6933 33.4415 27.0133 33.4735 27.28C33.5055 27.536 33.5535 27.776 33.6175 28ZM28.0815 25.84C28.0815 26.2453 28.2202 26.5707 28.4975 26.816C28.7748 27.0507 29.1482 27.168 29.6175 27.168C30.3322 27.168 30.9242 26.9547 31.3935 26.528C31.8735 26.0907 32.1135 25.5253 32.1135 24.832V24.112L29.9215 24.352C29.2282 24.448 28.7482 24.6133 28.4815 24.848C28.2148 25.0827 28.0815 25.4133 28.0815 25.84ZM40.1896 28.192C39.5923 28.192 39.0483 28.0427 38.5576 27.744C38.067 27.4453 37.7043 27.0613 37.4696 26.592V28H36.1896V16.224H37.5176V21.376C37.7416 20.8853 38.0883 20.496 38.5576 20.208C39.0376 19.9093 39.5816 19.76 40.1896 19.76C41.2456 19.76 42.1043 20.1547 42.7656 20.944C43.4376 21.7227 43.7736 22.736 43.7736 23.984C43.7736 25.232 43.4376 26.2453 42.7656 27.024C42.0936 27.8027 41.235 28.192 40.1896 28.192ZM39.9176 20.8C39.1603 20.8 38.5576 21.0773 38.1096 21.632C37.6723 22.176 37.4536 22.9173 37.4536 23.856V24.08C37.4536 25.0187 37.6723 25.7653 38.1096 26.32C38.5576 26.8747 39.1603 27.152 39.9176 27.152C40.6856 27.152 41.2936 26.864 41.7416 26.288C42.2003 25.712 42.4296 24.944 42.4296 23.984C42.4296 23.0133 42.2003 22.24 41.7416 21.664C41.2936 21.088 40.6856 20.8 39.9176 20.8ZM51.3934 25.632H52.6414C52.4707 26.432 52.0867 27.0613 51.4894 27.52C50.892 27.968 50.1667 28.192 49.3134 28.192C48.1507 28.192 47.212 27.8133 46.4974 27.056C45.7934 26.2987 45.4414 25.2853 45.4414 24.016C45.4414 22.7467 45.7934 21.7227 46.4974 20.944C47.212 20.1547 48.124 19.76 49.2334 19.76C50.3 19.76 51.1427 20.128 51.7614 20.864C52.38 21.5893 52.6894 22.544 52.6894 23.728V24.256H46.7374C46.7694 25.1733 47.0094 25.8827 47.4574 26.384C47.916 26.8853 48.5347 27.136 49.3134 27.136C49.836 27.136 50.268 27.0133 50.6094 26.768C50.9614 26.512 51.2227 26.1333 51.3934 25.632ZM49.2334 20.832C48.5614 20.832 48.012 21.0507 47.5854 21.488C47.1587 21.9147 46.892 22.5173 46.7854 23.296H51.3934C51.372 22.528 51.1694 21.9253 50.7854 21.488C50.412 21.0507 49.8947 20.832 49.2334 20.832ZM56.2676 16.224V28H54.9396V16.224H56.2676Z" fill="black" fill-opacity="0.7"/>
</svg>
