<svg width="327" height="52" viewBox="0 0 327 52" fill="none" xmlns="http://www.w3.org/2000/svg">
<rect x="0.5" y="8.5" width="326" height="43" rx="7.5" stroke="#2B2B2B"/>
<path d="M25.008 36H17.488V24.576H18.864V34.848H25.008V36ZM33.6175 36H32.2895C32.2468 35.7867 32.2095 35.5627 32.1775 35.328C32.1562 35.0827 32.1455 34.8533 32.1455 34.64C31.9748 35.1093 31.6335 35.4827 31.1215 35.76C30.6202 36.0373 30.0282 36.176 29.3455 36.176C28.5775 36.176 27.9482 35.968 27.4575 35.552C26.9775 35.1253 26.7375 34.5653 26.7375 33.872C26.7375 33.1787 26.9668 32.6293 27.4255 32.224C27.8948 31.8187 28.5935 31.5627 29.5215 31.456L32.1135 31.12V30.656C32.1135 30.0693 31.9482 29.6213 31.6175 29.312C31.2975 28.992 30.8335 28.832 30.2255 28.832C29.6922 28.832 29.2655 28.9653 28.9455 29.232C28.6255 29.488 28.4388 29.8507 28.3855 30.32H27.1055C27.1802 29.5307 27.5002 28.9067 28.0655 28.448C28.6415 27.9893 29.3722 27.76 30.2575 27.76C31.2815 27.76 32.0655 28.0053 32.6095 28.496C33.1535 28.9867 33.4255 29.696 33.4255 30.624V34.32C33.4255 34.6933 33.4415 35.0133 33.4735 35.28C33.5055 35.536 33.5535 35.776 33.6175 36ZM28.0815 33.84C28.0815 34.2453 28.2202 34.5707 28.4975 34.816C28.7748 35.0507 29.1482 35.168 29.6175 35.168C30.3322 35.168 30.9242 34.9547 31.3935 34.528C31.8735 34.0907 32.1135 33.5253 32.1135 32.832V32.112L29.9215 32.352C29.2282 32.448 28.7482 32.6133 28.4815 32.848C28.2148 33.0827 28.0815 33.4133 28.0815 33.84ZM40.1896 36.192C39.5923 36.192 39.0483 36.0427 38.5576 35.744C38.067 35.4453 37.7043 35.0613 37.4696 34.592V36H36.1896V24.224H37.5176V29.376C37.7416 28.8853 38.0883 28.496 38.5576 28.208C39.0376 27.9093 39.5816 27.76 40.1896 27.76C41.2456 27.76 42.1043 28.1547 42.7656 28.944C43.4376 29.7227 43.7736 30.736 43.7736 31.984C43.7736 33.232 43.4376 34.2453 42.7656 35.024C42.0936 35.8027 41.235 36.192 40.1896 36.192ZM39.9176 28.8C39.1603 28.8 38.5576 29.0773 38.1096 29.632C37.6723 30.176 37.4536 30.9173 37.4536 31.856V32.08C37.4536 33.0187 37.6723 33.7653 38.1096 34.32C38.5576 34.8747 39.1603 35.152 39.9176 35.152C40.6856 35.152 41.2936 34.864 41.7416 34.288C42.2003 33.712 42.4296 32.944 42.4296 31.984C42.4296 31.0133 42.2003 30.24 41.7416 29.664C41.2936 29.088 40.6856 28.8 39.9176 28.8ZM51.3934 33.632H52.6414C52.4707 34.432 52.0867 35.0613 51.4894 35.52C50.892 35.968 50.1667 36.192 49.3134 36.192C48.1507 36.192 47.212 35.8133 46.4974 35.056C45.7934 34.2987 45.4414 33.2853 45.4414 32.016C45.4414 30.7467 45.7934 29.7227 46.4974 28.944C47.212 28.1547 48.124 27.76 49.2334 27.76C50.3 27.76 51.1427 28.128 51.7614 28.864C52.38 29.5893 52.6894 30.544 52.6894 31.728V32.256H46.7374C46.7694 33.1733 47.0094 33.8827 47.4574 34.384C47.916 34.8853 48.5347 35.136 49.3134 35.136C49.836 35.136 50.268 35.0133 50.6094 34.768C50.9614 34.512 51.2227 34.1333 51.3934 33.632ZM49.2334 28.832C48.5614 28.832 48.012 29.0507 47.5854 29.488C47.1587 29.9147 46.892 30.5173 46.7854 31.296H51.3934C51.372 30.528 51.1694 29.9253 50.7854 29.488C50.412 29.0507 49.8947 28.832 49.2334 28.832ZM56.2676 24.224V36H54.9396V24.224H56.2676Z" fill="#2B2B2B"/>
</svg>
