<svg width="327" height="52" viewBox="0 0 327 52" fill="none" xmlns="http://www.w3.org/2000/svg">
<rect x="0.5" y="8.5" width="326" height="43" rx="7.5" stroke="#2B2B2B"/>
<path d="M22.272 36H20.896V25.728H16.64V24.576H26.544V25.728H22.272V36ZM27.734 37.872C28.118 37.872 28.4273 37.7493 28.662 37.504C28.8967 37.2587 29.1527 36.7787 29.43 36.064L26.198 27.952H27.59L30.15 34.528H30.182L32.598 27.952H33.974L30.726 36.24C30.3207 37.296 29.91 38.0107 29.494 38.384C29.0887 38.768 28.55 38.9653 27.878 38.976C27.7713 38.976 27.6433 38.9653 27.494 38.944C27.3553 38.9333 27.222 38.9173 27.094 38.896V37.808C27.19 37.8293 27.2807 37.8453 27.366 37.856C27.4513 37.8667 27.574 37.872 27.734 37.872ZM39.8459 36.192C39.2592 36.192 38.7259 36.048 38.2459 35.76C37.7659 35.4613 37.4085 35.072 37.1739 34.592V38.848H35.8459V27.952H37.1259V29.424C37.3499 28.9333 37.7072 28.5333 38.1979 28.224C38.6885 27.9147 39.2379 27.76 39.8459 27.76C40.9019 27.76 41.7605 28.1547 42.4219 28.944C43.0939 29.7227 43.4299 30.736 43.4299 31.984C43.4299 33.232 43.0939 34.2453 42.4219 35.024C41.7499 35.8027 40.8912 36.192 39.8459 36.192ZM39.5739 28.8C38.8165 28.8 38.2139 29.0773 37.7659 29.632C37.3285 30.176 37.1099 30.9173 37.1099 31.856V32.08C37.1099 33.0187 37.3285 33.7653 37.7659 34.32C38.2139 34.8747 38.8165 35.152 39.5739 35.152C40.3419 35.152 40.9499 34.864 41.3979 34.288C41.8565 33.712 42.0859 32.944 42.0859 31.984C42.0859 31.0133 41.8565 30.24 41.3979 29.664C40.9499 29.088 40.3419 28.8 39.5739 28.8ZM47.0976 26.272H45.5936V24.656H47.0976V26.272ZM47.0176 36H45.6896V27.952H47.0176V36ZM49.8615 27.952H51.1415V29.424C51.3335 28.9227 51.6642 28.5227 52.1335 28.224C52.6135 27.9147 53.1575 27.76 53.7655 27.76C54.6722 27.76 55.3762 28.032 55.8775 28.576C56.3895 29.1093 56.6455 29.856 56.6455 30.816V36H55.3175V31.104C55.3175 30.3573 55.1522 29.7973 54.8215 29.424C54.5015 29.04 54.0268 28.848 53.3975 28.848C52.7042 28.848 52.1602 29.0827 51.7655 29.552C51.3815 30.0213 51.1895 30.6933 51.1895 31.568V36H49.8615V27.952ZM59.7284 37.728V24.224H61.5204V37.728H59.7284Z" fill="#2B2B2B"/>
<g clip-path="url(#clip0_41_514)">
<rect width="40" height="16" transform="translate(16)" fill="white"/>
<path d="M26.756 13H21.116V4.432H22.148V12.136H26.756V13ZM33.2131 13H32.2171C32.1851 12.84 32.1571 12.672 32.1331 12.496C32.1171 12.312 32.1091 12.14 32.1091 11.98C31.9811 12.332 31.7251 12.612 31.3411 12.82C30.9651 13.028 30.5211 13.132 30.0091 13.132C29.4331 13.132 28.9611 12.976 28.5931 12.664C28.2331 12.344 28.0531 11.924 28.0531 11.404C28.0531 10.884 28.2251 10.472 28.5691 10.168C28.9211 9.864 29.4451 9.672 30.1411 9.592L32.0851 9.34V8.992C32.0851 8.552 31.9611 8.216 31.7131 7.984C31.4731 7.744 31.1251 7.624 30.6691 7.624C30.2691 7.624 29.9491 7.724 29.7091 7.924C29.4691 8.116 29.3291 8.388 29.2891 8.74H28.3291C28.3851 8.148 28.6251 7.68 29.0491 7.336C29.4811 6.992 30.0291 6.82 30.6931 6.82C31.4611 6.82 32.0491 7.004 32.4571 7.372C32.8651 7.74 33.0691 8.272 33.0691 8.968V11.74C33.0691 12.02 33.0811 12.26 33.1051 12.46C33.1291 12.652 33.1651 12.832 33.2131 13ZM29.0611 11.38C29.0611 11.684 29.1651 11.928 29.3731 12.112C29.5811 12.288 29.8611 12.376 30.2131 12.376C30.7491 12.376 31.1931 12.216 31.5451 11.896C31.9051 11.568 32.0851 11.144 32.0851 10.624V10.084L30.4411 10.264C29.9211 10.336 29.5611 10.46 29.3611 10.636C29.1611 10.812 29.0611 11.06 29.0611 11.38ZM38.1422 13.144C37.6942 13.144 37.2862 13.032 36.9182 12.808C36.5502 12.584 36.2782 12.296 36.1022 11.944V13H35.1422V4.168H36.1382V8.032C36.3062 7.664 36.5662 7.372 36.9182 7.156C37.2782 6.932 37.6862 6.82 38.1422 6.82C38.9342 6.82 39.5782 7.116 40.0742 7.708C40.5782 8.292 40.8302 9.052 40.8302 9.988C40.8302 10.924 40.5782 11.684 40.0742 12.268C39.5702 12.852 38.9262 13.144 38.1422 13.144ZM37.9382 7.6C37.3702 7.6 36.9182 7.808 36.5822 8.224C36.2542 8.632 36.0902 9.188 36.0902 9.892V10.06C36.0902 10.764 36.2542 11.324 36.5822 11.74C36.9182 12.156 37.3702 12.364 37.9382 12.364C38.5142 12.364 38.9702 12.148 39.3062 11.716C39.6502 11.284 39.8222 10.708 39.8222 9.988C39.8222 9.26 39.6502 8.68 39.3062 8.248C38.9702 7.816 38.5142 7.6 37.9382 7.6ZM46.545 11.224H47.481C47.353 11.824 47.065 12.296 46.617 12.64C46.169 12.976 45.625 13.144 44.985 13.144C44.113 13.144 43.409 12.86 42.873 12.292C42.345 11.724 42.081 10.964 42.081 10.012C42.081 9.06 42.345 8.292 42.873 7.708C43.409 7.116 44.093 6.82 44.925 6.82C45.725 6.82 46.357 7.096 46.821 7.648C47.285 8.192 47.517 8.908 47.517 9.796V10.192H43.053C43.077 10.88 43.257 11.412 43.593 11.788C43.937 12.164 44.401 12.352 44.985 12.352C45.377 12.352 45.701 12.26 45.957 12.076C46.221 11.884 46.417 11.6 46.545 11.224ZM44.925 7.624C44.421 7.624 44.009 7.788 43.689 8.116C43.369 8.436 43.169 8.888 43.089 9.472H46.545C46.529 8.896 46.377 8.444 46.089 8.116C45.809 7.788 45.421 7.624 44.925 7.624ZM50.2007 4.168V13H49.2047V4.168H50.2007Z" fill="#2B2B2B"/>
</g>
<defs>
<clipPath id="clip0_41_514">
<rect width="40" height="16" fill="white" transform="translate(16)"/>
</clipPath>
</defs>
</svg>
